<svg xmlns="http://www.w3.org/2000/svg" data-name="Layer 1" viewBox="0 0 95 95" x="0px" y="0px"><path d="M26.209,78.3a15.605,15.605,0,0,1-6.345,4.753A15.364,15.364,0,0,1,13,77.767c-1.5-2.337-1.782-4.7-.775-6.49a3.477,3.477,0,0,1,2.949-1.889h.073c1.293.035,2.455.959,3.273,2.6a1.435,1.435,0,0,0,1.308.806,1.451,1.451,0,0,0,1.3-.816c.894-1.841,2.109-2.862,3.422-2.875h.024a3.385,3.385,0,0,1,2.888,2.022c1.037,2.031.568,4.71-1.249,7.172ZM24.518,66.2a6.2,6.2,0,0,0-4.734,2.491,6.15,6.15,0,0,0-4.467-2.208,6.346,6.346,0,0,0-5.629,3.368c-1.553,2.756-1.239,6.215.864,9.486a17.9,17.9,0,0,0,9,6.648h0a1.366,1.366,0,0,0,.237.018,9.33,9.33,0,0,0,3.7-1.521,17.7,17.7,0,0,0,5.062-4.456c2.49-3.365,3.051-7.185,1.5-10.22a6.255,6.255,0,0,0-5.53-3.606Zm55.86,9.829-9.405,5.428a.975.975,0,0,1-1.463-.845V69.753A.919.919,0,0,1,70,68.907a.921.921,0,0,1,.976,0l9.405,5.429a.978.978,0,0,1,0,1.693ZM81.83,71.82l-9.4-5.429A3.882,3.882,0,0,0,66.6,69.753V80.612a3.873,3.873,0,0,0,5.824,3.362l9.4-5.429a3.88,3.88,0,0,0,0-6.725ZM46.205,63.6l-4.846-8.393.639-.37,4.847,8.394-.64.369Zm-8.582-9.774a.519.519,0,0,1-.325-.247l-2.54-4.4a.541.541,0,0,1,.2-.729l4.857-2.81,3.074,5.328-4.86,2.806a.53.53,0,0,1-.4.051Zm17.061-5.813L48.269,36.9l-6.144,6.934,3.483,6.03,9.076-1.853ZM48.948,30.948a.637.637,0,0,1,.324-.088.709.709,0,0,1,.175.024.659.659,0,0,1,.4.3L60.228,49.168a.671.671,0,0,1,.064.5.658.658,0,0,1-1.207.157L48.707,31.848a.665.665,0,0,1,.241-.9ZM44.516,53.386l5.573,9.65a1.459,1.459,0,0,1,.143,1.1,1.441,1.441,0,0,1-.675.881L46.4,66.843a1.451,1.451,0,0,1-1.986-.532L38.8,56.59a3.4,3.4,0,0,1-1.034.164,3.5,3.5,0,0,1-.9-.12,3.42,3.42,0,0,1-2.09-1.6l-2.54-4.4a3.447,3.447,0,0,1,1.258-4.7l5.914-3.42,7.324-8.266-.548-.948a3.562,3.562,0,0,1,4.01-5.224,3.535,3.535,0,0,1,2.166,1.658l10.38,17.979a3.565,3.565,0,1,1-6.175,3.564l-.355-.61L45.4,52.877l-.879.509ZM87.716,85A15.93,15.93,0,1,0,75.17,91.087,15.932,15.932,0,0,0,87.716,85Zm-49.3-6.9h18.2A18.8,18.8,0,0,1,78.1,56.6V38.113A18.52,18.52,0,0,1,56.889,16.9h-18.5a18.867,18.867,0,0,1,.084,5.177A18.782,18.782,0,0,1,19.836,38.6a19.064,19.064,0,0,1-2.933-.229V56.6a18.795,18.795,0,0,1,21.59,16.312,18.962,18.962,0,0,1-.082,5.179ZM32.341,85A15.927,15.927,0,1,0,19.8,91.087,15.808,15.808,0,0,0,32.341,85ZM7.305,29.612A15.893,15.893,0,1,0,21.731,4.034a16.393,16.393,0,0,0-1.947-.118,15.9,15.9,0,0,0-12.479,25.7Zm58.241-22.1A15.632,15.632,0,1,0,87.493,10.17,15.65,15.65,0,0,0,65.546,7.507ZM86.79,60.37a18.735,18.735,0,0,0-5.784-3.085V37.411A18.539,18.539,0,1,0,57.592,13.993H37.7A18.806,18.806,0,1,0,14,37.679V57.294A18.805,18.805,0,1,0,37.719,81H57.3A18.814,18.814,0,1,0,86.79,60.37ZM66.981,15.6a1.354,1.354,0,0,1,1.354-1.351H82.043A1.355,1.355,0,0,1,83.4,15.6v7.811a1.356,1.356,0,0,1-1.354,1.353H79.862a1.455,1.455,0,0,0-1.319.839,2.7,2.7,0,0,1-1.207,1.31c.037-.142.07-.283.1-.425a1.454,1.454,0,0,0-1.428-1.724h-7.67a1.355,1.355,0,0,1-1.354-1.353V15.6Zm1.354,12.071a4.265,4.265,0,0,1-4.26-4.26V15.6a4.263,4.263,0,0,1,4.26-4.257H82.043A4.263,4.263,0,0,1,86.3,15.6v7.811a4.265,4.265,0,0,1-4.259,4.26H80.7c-.951,1.392-2.765,2.744-6.233,2.76h-.007a1.452,1.452,0,0,1-1.052-2.453c.1-.1.189-.206.275-.307Zm-54.311-1L13.5,23.378l1.633-1.171a1.453,1.453,0,0,0-1.695-2.361l-.447.319-.185-1.171H26.676l-.25,1.021-.235-.169A1.453,1.453,0,1,0,24.5,22.207l1.186.852L24.8,26.672Zm.752-13.721h1.54v3.137h-1.54V12.951Zm8.688.865,1.411.617-.725,1.655H22.471l.993-2.272Zm3.892,14.652.874-3.581,1.989,1.427a1.453,1.453,0,1,0,1.694-2.361l-2.942-2.111.964-3.958a1.451,1.451,0,0,0-1.411-1.8h-1.2l.8-1.821a1.456,1.456,0,0,0-.749-1.914L23.3,10.571a1.455,1.455,0,0,0-1.914.748L19.3,16.088h-.073V11.5a1.455,1.455,0,0,0-1.454-1.454H13.323A1.454,1.454,0,0,0,11.869,11.5v4.59h-.762a1.451,1.451,0,0,0-1.435,1.68l.679,4.294L7.717,23.953a1.454,1.454,0,0,0,1.7,2.361l1.447-1.039.487,3.077a1.453,1.453,0,0,0,1.434,1.226H25.946A1.449,1.449,0,0,0,27.356,28.468Z" style="" fill-rule="evenodd"></path></svg>