<svg xmlns="http://www.w3.org/2000/svg" xmlns:xlink="http://www.w3.org/1999/xlink" version="1.1" x="0px" y="0px" viewBox="0 0 288.4791 433.8618" enable-background="new 0 0 288.4791 433.8618" xml:space="preserve"><g><path d="M30.1871,429.7788l3.9863,0.3301c0.0711-0.8606,0.1354-1.7523,0.1964-2.6577c1.2531-18.5875,0.452-46.0184,0.0311-57.3325   c-0.8105-21.8164-12.1816-88.7129-20.9248-111.7534c-8.3306-21.9526-11.5483-44.0762-8.1978-56.3618   c3.0952-11.3501,13.5273-20.2681,26.5762-22.7212c14.7446-2.7715,37.6963-15.4839,41.9673-17.8989   c2.9639,0.5723,13.874,2.3706,25.8691,0.4771c12.8354-2.0259,36.0181,1.5298,44.6113,4.9287   c1.6992,2.5098,4.8223,4.4238,6.9521,5.5166c-1.8008,2.8047-5.0742,7.8662-6.3389,9.5869   c-2.3916,3.2549-2.5186,8.8301-0.2666,11.6968c1.1846,1.5073,2.9141,2.1831,4.3613,2.481   c-0.2104,1.6816-0.0483,3.9062,1.5596,5.8433c1.5352,1.8496,4.1895,2.5947,7.8853,2.2163c3.2417-0.333,6.7373-3.5547,9.1729-6.3066   c0.0176,0.2896,0.0557,0.585,0.1172,0.8853c0.271,1.3154,1.1289,3.1914,3.6802,4.6562c5.6206,3.229,11.1104-1.9248,13.4536-4.126   c0.2993-0.2808,0.6387-0.5996,0.7617-0.6909c0.7129-0.5278,2.917-2.3501,4.9624-4.0571c0.0786,1.2393,0.418,2.396,1.2251,3.1753   c1.9795,1.9111,4.6943,3.6553,9.8174,2.1069c2.6011-0.7864,5.4504-3.2883,7.5648-5.9067   c4.4454,2.394,18.7281,10.1706,23.4689,13.7886c5.6475,4.3096,11.6152,18.2666,18.2446,42.668   c6.3843,23.499,27.2529,72.9102,31.79,83.5508c-5.5864,1.749-21.1899,6.7012-34.6724,11.6045   c-14.0648,5.1152-33.5215,4.7329-38.6022,4.5307c-0.5403-18.2734-1.2769-36.8438-1.8402-45.2944l-3.9912,0.2656   c1.1606,17.415,3.0645,77.9014,2.4453,89.6758c-0.5082,9.6485,4.5294,28.8988,6.5821,36.2715   c0.4637,1.6655,0.7763,2.7296,0.8369,2.9346l3.8359-1.1328c-0.0786-0.2666-7.8477-26.7129-7.2607-37.8623   c0.2202-4.1854,0.1254-14.457-0.1404-26.765c2.3223,9.9525,4.9231,21.9056,5.324,27.1185   c0.7681,9.9834,6.8257,35.3271,7.083,36.4004l3.8896-0.9316c-0.0029-0.0123-0.0237-0.0992-0.0528-0.2217   c-0.5862-2.4658-6.2231-26.3422-6.9316-35.5537c-0.6509-8.4619-6.5674-32.7676-8.5771-40.8535   c6.8159,0.208,24.9282,0.21,38.7666-4.8223c3.6217-1.3171,7.3984-2.6381,11.0917-3.8992   c2.2209,9.3589,10.1483,42.4197,12.9728,49.5466c2.0262,5.1144,6.9161,19.9984,10.6912,32.9915   c0.1584,0.5455,0.3157,1.0888,0.47,1.6267l3.8447-1.1016c-3.8589-13.4609-9.1416-29.5742-11.2871-34.9893   c-2.7277-6.884-10.8203-40.6646-12.8855-49.3625c11.6497-3.9138,21.5665-6.971,21.7068-7.0144   c0.543-0.167,0.9893-0.5566,1.2275-1.0723c0.2378-0.5166,0.2456-1.1094,0.0205-1.6309   c-0.2529-0.5869-25.4097-59.0449-32.4771-85.0586c-7.0596-25.9844-13.1284-39.8008-19.6782-44.7988   c-4.9089-3.7466-18.7629-11.3105-23.6443-13.9404c0.6066-1.1428,0.9536-2.1589,0.9324-2.879   c-0.0415-1.4116-0.4351-6.167-3.7461-8.0923c-2.0225-1.1753-4.8945-0.4917-6.9189,0.271c-2.231-5.8008-2.6309-6.1128-3.0532-6.4409   c-0.2402-0.187-0.7109-0.5532-3.1548-1.0859c-0.8584-2.0005-2.5098-5.5581-3.877-6.7788   c-1.5728-1.4048-5.3711-1.4189-8.1069-1.2153c-0.5381-0.8081-1.3862-2.1646-2.3604-4.0298   c-1.8096-3.4639-5.3423-4.5542-9.6865-2.9951c-1.9082,0.6851-7.0532,2.2153-9.019,2.6411c-0.228-0.2856-0.5034-0.6494-0.73-0.9492   c-0.9761-1.2905-2.0825-2.7534-3.2437-3.6411c-2.545-1.946-6.6686-2.7952-10.5022-0.6334c-0.441-2.701-0.9537-6.2658-1.484-10.1789   c4.4149-4.9755,9.6822-24.1917,8.785-33.0129c-0.0534-0.5241-0.1021-1.1853-0.1468-1.9477   c0.1866-0.1273,0.3793-0.2434,0.554-0.3917c1.6401-1.3916,2.4619-3.4917,2.1982-5.6167c-0.5239-4.2231,0.6553-9.479,1.7964-14.562   c2.0726-9.2362,4.3961-19.6154-4.8557-23.3079c-0.0221-3.3898-0.0706-5.6348-0.1506-6.9977   c-0.3262-5.5449-5.2192-29.4541-23.1948-45.127C119.8004,3.3653,105.0641-1.1186,87.7037,0.2359   C34.8399,4.3609,36.149,43.273,36.8521,64.1778l0.0757,2.3359c0.2228,7.4619,4.3343,17.5825,9.6628,27.4814   c-1.6097,1.8535-3.8319,6.2036,0.0169,14.1582c4.4858,9.271,10.8076,16.3975,14.7832,19.0957   c2.7022,1.833,5.667,2.7876,8.4443,2.7876c0.7653,0,1.5137-0.0807,2.2411-0.2274c1.5854,3.2403,3.9698,11.0423,5.8809,19.5067   c0.5757,2.5489-2.0452,6.2301-3.6538,8.0831c-0.2369-0.0467-0.3714-0.0756-0.3833-0.0782   c-0.4878-0.1079-0.9985-0.0303-1.4321,0.2188c-0.2588,0.1489-26.0698,14.9351-41.3726,17.8115   C16.5714,178.085,4.9151,188.1333,1.419,200.9507c-3.5581,13.0488-0.2935,36.1421,8.3169,58.834   c8.6338,22.752,19.8657,88.8936,20.668,110.4824C30.7462,379.4693,31.7418,410.9546,30.1871,429.7788z M48.8207,97.9991   c6.876,11.9942,15.0306,23.0626,19.5725,27.9128c-1.5646-0.2578-3.2002-0.9174-4.7564-1.9729   c-2.9609-2.0098-8.981-8.3359-13.4287-17.5278C48.153,102.1638,48.2832,99.5216,48.8207,97.9991z M143.5352,162.2769   c-10.4141-3.3516-31.8144-6.3657-44.4683-4.3677c-7.9232,1.2509-15.4819,0.7673-20.2073,0.1935   c1.8003-2.4862,3.7863-6.1822,2.9988-9.6681c-4.8027-21.2729-7.9224-23.335-9.1538-23.7485   c-3.7578-2.7021-31.2153-39.4224-31.7788-58.2915l-0.0762-2.3511C40.1456,43.1016,38.9664,8.0513,88.0152,4.2242   c16.251-1.2666,29.9966,2.8892,40.853,12.3545c16.7568,14.6104,21.5435,37.4712,21.8306,42.3467   c0.0709,1.2071,0.1155,3.1953,0.1388,6.1431c-4.0941,0.8868-7.4821,5.8047-7.8898,6.4185l3.3306,2.2148   c1.2886-1.9297,3.8354-4.6108,5.623-4.7754c7.3701,1.9219,6.2783,8.5698,3.894,19.1938   c-1.2158,5.4165-2.4727,11.0176-1.8633,15.9302c0.0986,0.7944-0.1987,1.5503-0.8164,2.0742   c-0.6377,0.542-1.4619,0.7158-2.2642,0.4805c-1.5469-0.4565-3.0552-0.4351-3.2251-0.4336l0.0835,3.999   c0.0098-0.0029,1.0493-0.0127,2.0088,0.2705c0.4932,0.1459,0.9944,0.2153,1.4946,0.2413c0.0323,0.4518,0.0663,0.8722,0.1035,1.2368   c0.6777,6.6622-2.7565,19.7155-5.6398,26.2947c-1.5011-11.6054-2.8986-23.6146-2.9227-23.822l-3.9736,0.4609   c0.1659,1.4288,3.9722,34.1377,5.7806,43.4156C143.9034,159.6125,143.6201,161.0402,143.5352,162.2769z M200.4884,195.9439   c-3.4922,1.0571-4.7432-0.0581-5.8115-1.0874c-0.233-0.5858-0.0247-2.5256,0.4385-4.2461c0.454-0.4701,1.4674-1.4737,3.2271-2.9829   l-2.6045-3.0361c-2.3104,1.9822-3.4663,3.1939-3.8065,3.564c-2.1398,1.804-7.5997,6.3846-8.6715,7.1787   c-0.3105,0.23-0.6494,0.5483-1.1191,0.9888c-2.9458,2.7661-6.0425,5.1143-8.7236,3.5732   c-1.0039-0.5767-1.5928-1.2417-1.7505-1.9771c-0.2354-1.0986,0.4492-2.3555,0.6831-2.6826l5.5267-6.8842   c1.1413-0.5763,4.0319-2.2315,5.6384-4.9092c1.3594-2.2656,3.8853-3.6313,3.9106-3.645l-0.936-1.7676l-0.9302-1.7705   c-0.1431,0.0752-3.5259,1.8784-5.4741,5.125c-1.3213,2.2017-4.2573,3.5171-4.2817,3.5278l0.0081,0.0187   c-0.1562,0.0678-0.3129,0.1368-0.452,0.2469c-2.2681,1.7959-7.6479,6.1113-8.6162,7.4023   c-2.6133,3.4844-6.4497,7.3394-8.6963,7.5698c-2.189,0.2271-3.7944-0.0635-4.3989-0.7915   c-1.1819-1.4235-0.5876-3.4575-0.3724-4.0607c5.4503-6.9344,13.8867-17.0205,15.9437-18.1737   c3.3496-1.8774,7.0449-4.083,7.0815-4.105l-2.0508-3.4346c-0.0366,0.022-3.686,2.2002-6.9868,4.0503   c-3.2812,1.8395-13.4341,14.5057-16.6873,18.625c-0.9147-0.0898-2.181-0.378-2.7815-1.1421   c-1.0366-1.3193-1.0557-4.9512,0.3447-6.8569c1.8535-2.5225,7.4824-11.3569,7.7212-11.7319   c0.0167-0.0262,0.0251-0.0557,0.0405-0.0825l0.0068,0.0039c0.7612-1.3262,4.2339-2.5483,6.3408-2.9565l-0.7549-3.9282   c-0.9866,0.1891-5.3478,1.14-7.8615,3.4493c-1.9066-0.9365-4.8324-2.6544-6.0535-4.5215   c-0.1309-1.0386-0.3672-4.4077,1.7871-5.9336c3.4082-2.4131,6.3745-0.2935,6.7021-0.043c0.7285,0.5571,1.7427,1.8979,2.4834,2.8765   c1.1387,1.5049,1.71,2.2603,2.6279,2.5435c1.7793,0.5376,11.5654-2.8491,11.6621-2.8838c3.5591-1.2773,4.4531,0.437,4.79,1.0825   c1.8442,3.5308,3.2891,5.4165,3.3496,5.4946c0.4233,0.5488,1.0981,0.8408,1.792,0.7676c2.5801-0.2705,5.5181-0.1929,6.2539,0.1592   c0.6069,0.6216,2.0776,3.4849,3.2046,6.252c0.2554,0.626,0.8096,1.0811,1.4736,1.2095c0.8726,0.1685,1.8169,0.3896,2.3579,0.5469   c0.5361,1.1411,1.7207,4.1196,2.6733,6.6543c0.2007,0.5347,0.6206,0.9575,1.1533,1.1631c0.5327,0.2051,1.1289,0.1729,1.6357-0.0894   c1.9517-1.0073,4.4839-1.6377,5.1118-1.272c1.1113,0.6465,1.6846,2.8462,1.7554,4.6562   C208.046,189.166,203.9244,194.9053,200.4884,195.9439z"></path></g></svg>