<svg xmlns="http://www.w3.org/2000/svg" xmlns:xlink="http://www.w3.org/1999/xlink" version="1.1" x="0px" y="0px" viewBox="0 0 100 100" enable-background="new 0 0 100 100" xml:space="preserve"><g><path d="M79.616,19.177c0-7.776-5.669-14.103-12.637-14.103c-3.583,0-6.82,1.675-9.122,4.358c-0.489,0.195-1.108,0.465-1.505,0.729   c-0.761,0.508-4.212,4.317-4.639,4.938c-0.154,0.226-0.659,1.001-1.297,1.984c-1.242,1.911-3.119,4.799-3.627,5.479   c-0.119,0.159-0.383,0.464-0.717,0.851c-1.773,2.051-5.901,6.826-6.264,10.281c-0.023,0.02-0.048,0.04-0.075,0.062   c-0.451,0.371-1.289,1.059-2.673,4.108c-0.324,0.521-0.775,1.787-1.397,3.531c-1.08,3.03-2.559,7.179-4.245,9.737l-0.014,0.022   l-0.017-0.031l-0.022,0.115c-0.108,0.251-0.18,0.626-0.212,1.119c-0.01,0.156-0.013,0.283-0.014,0.348l-0.076,0.228l0.231,0.077   l0,0.002l-0.231-0.076c-0.073,0.225-0.184,0.571-0.314,0.989c-0.364,1.18-0.833,2.799-1.001,3.808   c-0.158,0.947-0.359,4.448-0.536,7.538c-0.139,2.415-0.27,4.695-0.35,5.219c-0.057,0.37-0.404,1.404-0.845,2.713   c-0.505,1.501-1.196,3.557-1.841,5.772c-0.636,2.188-1.108,4.111-1.444,5.879c-0.262,0.338-2.124,1.864-3.564,2.16   c-0.588,0.122-0.748,0.402-0.778,0.616c-0.085,0.599,0.759,1.095,1.02,1.232c0.547,0.29,1.135,0.431,1.573,0.378   c0.698-0.083,1.114-0.299,1.448-0.472c0.255-0.133,0.458-0.237,0.739-0.272c0.265-0.034,0.456,0.036,0.641,0.104   c0.256,0.093,0.606,0.221,0.966-0.138c0.289-0.288,0.359-0.886,0.439-1.578c0.063-0.541,0.134-1.153,0.318-1.581   c0.095-0.222,0.354-0.655,0.682-1.205c1.038-1.738,2.965-4.968,3.79-8.335c0.216-0.347,0.563-1.15,0.997-2.157   c0.182-0.42,0.377-0.872,0.58-1.333l0.017-0.052c0.867-3.866,2.096-6.598,2.91-8.405c0.306-0.679,0.563-1.25,0.727-1.718   c1,1.45,4.237,8.274,4.236,10.807l0.009,0.07c0.362,1.395,2.028,4.52,2.24,4.913c0.067,0.308,0.525,2.079,2.811,6   c0.983,1.691,2.18,3.562,3.556,5.559l0.046,0.052c0.307,0.268,0.631,1.918,0.429,2.179c-0.104,0.134-0.142,0.298-0.108,0.461   c0.056,0.266,0.292,0.514,0.701,0.736c0.519,0.282,1.283,0.495,2.132,0.597c0.092,0.02,0.205,0.06,0.336,0.106   c0.155,0.056,0.331,0.119,0.536,0.17c0.027,0.008,0.111,0.037,0.359,0.159c0.164,0.08,0.357,0.181,0.561,0.286   c0.13,0.067,0.264,0.137,0.397,0.205l0.11-0.218l0,0l-0.11,0.218l0.206,0.103l0,0c0.656,0.327,0.938,0.427,1.113,0.427   c0.048,0,0.088-0.008,0.125-0.02c0.034-0.011,0.172-0.033,0.283-0.051c0.903-0.145,1.499-0.271,1.552-0.68   c0.044-0.343-0.35-0.524-0.512-0.596l-0.006-0.004v0.001c-0.002-0.001-0.004-0.002-0.006-0.002l-0.054,0.121l-0.05,0.099h-0.001   l0.099-0.225c-0.186-0.081-0.426-0.163-0.733-0.25c-0.126-0.131-0.374-0.396-0.689-0.734c-1.029-1.102-2.737-2.929-3.339-3.437   c-0.364-0.616-1.651-3.269-2.802-6.42c-0.006-0.027-0.017-0.056-0.031-0.087c0-0.001,0-0.001,0-0.002h0   c-0.005-0.013-0.011-0.024-0.018-0.037l0.002-0.001c-0.259-0.535-0.769-1.738-1.309-3.014c-1.151-2.715-1.897-4.452-2.219-4.9   c-0.02-0.087-0.056-0.228-0.113-0.452c-0.21-0.824-0.647-2.54-0.614-3.194c0-0.084-0.018-8.418-1.574-14.49L44.72,56.3   c0.027-0.133,0.005-0.312-0.033-0.617c-0.11-0.878-0.338-2.696,0.213-6.041c0.091-0.089,0.308-0.283,0.519-0.472   c1.304-1.167,2.725-2.477,3.147-3.324c0.026-0.022,0.053-0.043,0.082-0.066c0.814-0.64,2.319-0.902,2.56-0.94   c0.63,0.065,7.456,0.711,10.729-1.425c1.952-0.707,12.308-10.523,12.798-11.104l0.029-0.042c1.877-3.284,2.829-5.085,2.829-5.353   l-0.005-0.089C78.869,24.621,79.616,21.995,79.616,19.177z M44.909,35.632c0.374-0.64,0.709-1.052,0.712-1.057l-0.041-0.033   c0.061-0.028,0.122-0.062,0.183-0.109c0.432-0.334,0.908-1.225,0.942-1.755c0.455-2.122,1.818-2.71,1.875-2.733l0.093-0.038   l0.048-0.088c0.001-0.003,0.049-0.089,0.143-0.221c0.472-0.458,0.98-0.906,1.347-1.185c0.214-0.104,0.417-0.186,0.606-0.242   c3.195,1.058,2.936,2.213,2.823,2.71c-0.033,0.149-0.062,0.279,0.016,0.388c0.137,0.25,0.036,1.381-0.543,2.541   c-0.011,0.021-0.022,0.044-0.034,0.066c-0.081,0.101-0.155,0.185-0.216,0.245l-0.032,0.038c-0.858,1.235-1.385,1.328-1.732,1.389   c-0.066,0.012-0.126,0.022-0.2,0.043c-0.635,0.218-2.47,1.483-2.472,2.097c0,0.156,0.087,0.287,0.23,0.35   c0.217,0.125,0.474,0.278,0.748,0.442c-0.042,0.238-0.158,0.849-0.38,1.525c-0.322,0.985-0.896,2.21-1.804,2.459   c-0.577,0.158-1.255-0.101-2.021-0.774C42.968,39.823,44.06,37.093,44.909,35.632z M56.011,34.279l0.006-0.03   c0.018-0.147,0.41-3.633-1.187-5.798c-0.473-0.696-1.649-1.731-2.956-1.731c-0.458,0-0.888,0.128-1.277,0.382   c-0.798,0.52-1.38,1.157-1.761,1.657c-0.288,0.303-0.474,0.578-0.556,0.711c-0.364,0.182-1.673,0.972-2.125,3.115l-0.006,0.047   c-0.015,0.405-0.467,1.175-0.714,1.37c-0.143-0.859,0.45-4.62,3.279-7.928l0.029-0.041c0.356-0.608,0.775-1.259,1.219-1.949   c1.308-2.029,2.932-4.549,3.872-7.533c0.28-0.194,0.576-0.462,0.886-0.797c-0.246,1.096-0.379,2.242-0.379,3.422   c0,7.777,5.669,14.104,12.638,14.104c1.246,0,2.45-0.206,3.589-0.583c-0.86,0.637-1.834,1.353-2.762,2.036   c-2.675,1.967-5.438,4-6.232,4.656c-0.041-0.001-0.093-0.003-0.154-0.006c-2.485-0.099-4.793-0.017-6.892,0.237   C54.743,38.967,55.139,37.516,56.011,34.279z M40.087,34.186c0.069-0.056,0.128-0.106,0.18-0.155l0.078-0.073l0.008-0.106   c0.268-3.281,4.383-8.042,6.141-10.074c0.355-0.411,0.611-0.707,0.742-0.881c0.519-0.694,2.328-3.477,3.648-5.509   c0.637-0.979,1.139-1.752,1.29-1.972c0.446-0.649,3.817-4.341,4.487-4.789c0.13-0.086,0.289-0.174,0.461-0.26   c-0.87,1.209-1.565,2.581-2.043,4.067c-0.737,1-1.282,1.48-1.634,1.708l-0.085,0.055l-0.03,0.097   c-0.913,2.952-2.467,5.363-3.837,7.49c-0.442,0.686-0.86,1.335-1.22,1.947c-2.951,3.463-3.616,7.455-3.356,8.494   c-0.147,0.396-0.319,0.771-0.517,1.113c-0.94,1.626-2.396,2.525-4.326,2.671c-1.029,0.077-1.927-0.089-2.376-0.197   C38.949,35.126,39.686,34.516,40.087,34.186z M21.67,88.367c-0.544-0.287-0.738-0.584-0.728-0.659   c0.002-0.014,0.068-0.092,0.338-0.147c1.674-0.345,3.784-2.114,3.965-2.477l0.024-0.073c0.312-1.657,0.75-3.459,1.33-5.489   c0.873,0.577,2.285,0.969,2.912,1.122c-0.65,1.278-1.306,2.38-1.776,3.168c-0.352,0.59-0.606,1.015-0.715,1.271   c-0.216,0.503-0.292,1.158-0.36,1.737c-0.06,0.514-0.127,1.096-0.279,1.247c-0.101,0.101-0.125,0.101-0.38,0.008   c-0.212-0.077-0.502-0.184-0.901-0.133c-0.38,0.046-0.658,0.19-0.927,0.33c-0.324,0.168-0.659,0.342-1.257,0.413   C22.591,88.725,22.114,88.603,21.67,88.367z M55.729,93.899L55.729,93.899c-0.132-0.067-0.265-0.136-0.394-0.203   c-0.206-0.107-0.403-0.21-0.57-0.292c-0.241-0.118-0.378-0.176-0.471-0.199c-0.18-0.044-0.341-0.102-0.483-0.153   C53.667,93,53.53,92.95,53.376,92.92c-0.802-0.097-1.496-0.287-1.954-0.536c-0.345-0.188-0.421-0.334-0.418-0.364   c0.429-0.555-0.035-2.463-0.473-2.913c-1.257-1.825-2.359-3.54-3.287-5.109c1.562-0.11,2.571-0.313,3.064-0.618   c1.154,3.084,2.371,5.56,2.704,6.103l0.025,0.04l0.037,0.03c0.533,0.434,2.347,2.374,3.321,3.417   c0.322,0.345,0.574,0.615,0.698,0.742c0.022,0.024,0.042,0.044,0.057,0.059l0.052,0.051l0.069,0.02   c0.312,0.085,0.558,0.168,0.729,0.243l0.078-0.178l0.024-0.046c0.001,0,0.002,0.001,0.003,0.001l-0.1,0.227   c0.018,0.008,0.034,0.016,0.05,0.022c-0.274,0.089-0.754,0.166-0.941,0.195c-0.169,0.027-0.267,0.044-0.332,0.061   c-0.063-0.01-0.261-0.07-0.852-0.365l-0.125,0.25L55.931,94L55.729,93.899z M48.107,45.509l-0.023,0.05   c-0.31,0.675-1.612,1.906-2.539,2.746c-0.114-0.231-0.528-0.497-1.938-0.844c-0.804-0.198-1.489-0.732-1.818-0.99   c-0.194-0.152-0.253-0.198-0.349-0.198l-0.126,0.003l-0.061,0.102c-0.112,0.188-0.04,0.251,0.848,1.015   c0.25,0.216,0.594,0.511,0.643,0.573c0.015,0.024,0.045,0.114,0.071,0.187c0.141,0.407,0.402,1.166,1.19,1.633l0.211,0.125   l0.091-0.227c0.012-0.03,0.024-0.057,0.036-0.083c-0.553,3.391-0.321,5.252-0.208,6.151c0.021,0.166,0.042,0.338,0.041,0.411   l-0.049,0.07l0.056,0.211c-8.21,2.832-12.112-4.041-12.408-4.59c0.032-0.187,0.073-0.335,0.12-0.43   c1.72-2.614,3.209-6.792,4.296-9.844c0.51-1.43,0.957-2.683,1.253-3.259c0.362,0.092,1.132,0.254,2.076,0.254   c1.248,0,2.794-0.288,4.085-1.397c-0.495,1.566-0.524,3.465,1.234,4.936c0.723,0.634,1.409,0.954,2.045,0.954   c0.166,0,0.329-0.021,0.488-0.065c0.409-0.112,0.756-0.362,1.053-0.687c-0.286,1.21-0.444,2.381-0.264,3.146   c-0.004,0.003-0.008,0.006-0.012,0.01L48.107,45.509z M74.292,31.968c-0.653,0.73-10.864,10.391-12.563,10.927l-0.07,0.034   c-3.18,2.105-10.355,1.359-10.428,1.352l-0.035-0.004l-0.034,0.005c-0.067,0.01-1.487,0.219-2.502,0.819   c-0.116-0.947,0.215-2.661,0.955-4.914c0.186-0.565,0.354-1.031,0.456-1.304c1.885,1.147,2.567,1.532,2.852,1.532l0.049-0.004   c2.476-0.435,5.312-0.593,8.428-0.47c0.138,0.005,0.231,0.009,0.274,0.009h0.104l0.078-0.067c0.648-0.556,3.513-2.663,6.283-4.7   c2.7-1.986,4.149-3.058,4.862-3.608c1.039-0.631,1.988-1.421,2.826-2.339C75.391,30.027,74.865,30.965,74.292,31.968z"></path><path d="M39.362,49.284l-0.061,0.102c-0.104,0.174-0.18,0.3,1.887,1.542c0.41,0.246,1.769,1.049,2.05,1.049l0.137-0.007   l0.061-0.102c0.126-0.209-0.081-0.365-0.562-0.697c-0.347-0.24-0.817-0.54-1.324-0.845c-0.41-0.246-1.77-1.05-2.05-1.05   L39.362,49.284z"></path></g></svg>