<svg xmlns="http://www.w3.org/2000/svg" xmlns:xlink="http://www.w3.org/1999/xlink" version="1.1" x="0px" y="0px" viewBox="0 0 360 360" style="enable-background:new 0 0 360 360;" xml:space="preserve"><g><path d="M169.2,47c-11.8,2.6-18.4,17.4-17.9,28.4c0.5,11,7.7,21.4,18.2,25.2c10.2,3.7,22.7-0.1,28.8-9.2c7.3-11,3.9-26.5-3.5-36.4   c-9.5-12.6-24.6-12.9-35.5-2c-2.3,2.3,1.3,5.8,3.5,3.5c4.8-4.8,10.7-8.1,17.6-6.1c6.8,1.9,11.5,8.1,14.2,14.3   c5,11.6,3.3,26.6-10,31.3c-10.5,3.7-21.5-2-26.1-11.9c-4.9-10.4-0.6-29.4,12.2-32.2C173.7,51.2,172.3,46.4,169.2,47L169.2,47z"></path><path d="M66.6,118.9c-3.9-1-0.8-5.4,0.9-6.4c2-1.2,4.6-1.5,6.8-1.9c5.8-1,11.7-1.4,17.7-1.6c11-0.3,22.1,0.5,33.1,1   c21.9,0.8,43.8-0.7,65.7-2.7c21.8-2,43.6-4.3,65.5-4.6c5.5-0.1,10.9,0,16.4,0.2c5.4,0.2,11.4,0,16.7,1.4c7.2,1.9,7.1,9.1,0.8,12.3   c-5.1,2.6-11.9,2.1-17.5,2.5c-25.1,1.5-50.1,3-75.2,4.5c-3.2,0.2-3.2,5.2,0,5c27.9-1.7,55.9-2.8,83.7-5.1   c8.3-0.7,20.3-4.3,18.9-15.1c-1.4-10.2-15-9.9-22.6-10.3c-27.7-1.5-55.3,1.4-82.9,3.9c-27.8,2.5-55.2,3.6-83.2,2.4   c-13.8-0.6-30-2-43.3,2.5c-4.1,1.4-7.8,4.1-8.2,8.7c-0.3,3.8,1.7,7.2,5.4,8.2C68.4,124.5,69.7,119.7,66.6,118.9L66.6,118.9z"></path><path d="M64.7,123.5c12.8,6.7,27.3,4.9,41.4,5.8c15.1,0.9,30.1,1.6,45.2-0.1c3.2-0.4,3.2-5.4,0-5c-14,1.6-27.9,1.2-42,0.3   c-6.7-0.4-13.4-0.8-20.1-1c-8.1-0.2-14.7-0.5-22-4.3C64.4,117.7,61.8,122,64.7,123.5L64.7,123.5z"></path><path d="M148.8,126.7c-0.7,13.8-1,27.7-2.4,41.4c-1,10.4-1.9,20.6-1.6,31c0.1,3.2,5.1,3.2,5,0c-0.3-10.5,0.6-20.6,1.6-31   c1.4-13.8,1.7-27.6,2.4-41.4C153.9,123.5,148.9,123.5,148.8,126.7L148.8,126.7z"></path><path d="M145.6,197.3c-10.7,9.4-21.1,19-31.2,29c-8.4,8.3-16.3,17.2-20,28.6c-1,3.1,3.8,4.4,4.8,1.3c3.8-11.8,12.7-20.5,21.3-29   c9.3-9.1,18.8-17.9,28.6-26.4C151.5,198.8,148,195.2,145.6,197.3L145.6,197.3z"></path><path d="M94.4,253.4c-1.9,6.9,1.9,13.8,4.8,19.9c3.4,7.2,7.6,14.1,12.3,20.6c6.2,8.4,17.2,25.4,29.8,20c4.9-2.1,8.7-7.1,10.2-12.1   c1.9-6.5-4.6-10.3-7.7-15.2c-3.8-6-7.6-11.9-11.6-17.8c-2-3-3.7-7-4-10.7c-0.3-4.5,2.5-8,5.4-11.1c11.1-11.9,27.1-18.4,40.7-27   c2.7-1.7,0.2-6-2.5-4.3c-13.3,8.4-28.3,14.9-39.8,25.9c-5.1,4.8-9.6,10.5-8.7,17.9c1,7.4,5.3,12.3,9.3,18.3c2.2,3.3,3.9,6.7,6,10.1   c2,3.3,5,6,7,9.1c2.5,4-1.2,9.5-5,11.8c-5,3-9.5-0.1-13.1-3.6c-6.7-6.6-12.5-14.2-17.4-22.2c-2.4-3.9-4.6-7.9-6.6-12   c-2.2-4.7-5.8-10.7-4.3-16C100.1,251.6,95.3,250.3,94.4,253.4L94.4,253.4z"></path><path d="M196.4,125.6c0.2,13.8,0.5,27.6,0.7,41.4c0.1,6.2,0.2,12.5,0.3,18.7c0.1,6,0,12.3,2,18c3.7,10.3,13.2,19.2,20.7,26.8   c8.1,8.3,16.7,15.9,25.4,23.5c8.9,7.8,18,15.5,26.6,23.6c3.9,3.6,8.1,7.2,11.4,11.4c4.6,5.7,6.8,16.2-2.7,18.4   c-11.6,2.7-22.7-11.5-29.4-19.1c-8.2-9.2-16.4-17.7-25.9-25.6c-10.2-8.5-19.5-17.1-28.4-26.8c-7.3-7.9-15.6-14.2-24.7-20   c-2.7-1.7-5.2,2.6-2.5,4.3c9.2,5.9,17.4,12.3,24.7,20.4c8.5,9.4,17.6,17.5,27.4,25.7c9.9,8.3,18.4,17.3,27,26.9   c6.9,7.7,15.8,17.9,26.8,19.3c9.6,1.3,17.9-5.6,16.7-15.5c-1.3-10.9-12.6-19-20-25.8c-18.7-17.1-38.9-32.7-55.9-51.7   c-5.3-6-11.6-12.5-13.3-20.5c-1.6-7.7-0.9-16.2-1-24c-0.3-16.4-0.6-32.8-0.9-49.3C201.3,122.4,196.3,122.4,196.4,125.6L196.4,125.6   z"></path></g></svg>