<svg xmlns="http://www.w3.org/2000/svg" xmlns:xlink="http://www.w3.org/1999/xlink" version="1.1" x="0px" y="0px" viewBox="0 0 496 496" style="enable-background:new 0 0 496 496;" xml:space="preserve"><g><path d="M112,336v16h52.687c5.159,0,10.009,2.009,13.656,5.657l11.314-11.313c-6.67-6.67-15.537-10.343-24.971-10.343H112z"></path><path d="M210.343,346.343l11.314,11.313c3.647-3.648,8.497-5.657,13.656-5.657H288v-16h-52.687   C225.88,336,217.013,339.673,210.343,346.343z"></path><path d="M480,208h-64c-8.822,0-16,7.178-16,16h-89.55c-16.287,0-32.261,5.603-44.978,15.777L256,247.355v-13.14l28.424-47.385   C297.23,165.481,304,141.036,304,116.13C304,52.096,251.904,0,187.869,0h-2.113c-28.289,0-56.637,3.112-84.253,9.249   C81.345,13.729,60.652,16,40,16h-8v8c0,15.158,8.225,28.823,21.093,36.024C49.756,67.408,48,75.518,48,83.617   c0,14.915,5.682,28.948,16,39.659V184c0,39.701,32.299,72,72,72h8v11.165c0,3.778-2.576,6.99-6.265,7.81l-43.767,9.726   c-26.555,5.901-50.553,20.836-67.573,42.055C9.374,347.975,0,374.641,0,401.843V496h400v-94.157   c0-30.872-12.107-60.575-33.09-82.708c12.433-2.011,23.862-7.49,33.09-15.713V304c0,8.822,7.178,16,16,16h64   c8.822,0,16-7.178,16-16v-80C496,215.178,488.822,208,480,208z M49.245,31.856c18.736-0.581,37.44-2.924,55.729-6.989   C131.453,18.983,158.632,16,185.756,16h2.113C243.081,16,288,60.918,288,116.137c0,22-5.981,43.599-17.297,62.462L243.47,224H232   c-28.796,0-52.585-21.848-55.663-49.838l8.587-2.146C198.511,168.62,208,156.424,208,142.358c0-8.11-3.158-15.734-8.894-21.468   c-5.733-5.734-13.356-8.891-21.465-8.891c-0.001,0-0.003,0-0.004,0h-0.104c-5.178,0-10.163,1.261-14.604,3.638   c-1.923-4.838-2.929-10.049-2.929-15.253c0-11.007,4.286-21.356,12.07-29.14l1.587-1.587l-11.314-11.313l-1.587,1.587   C149.951,70.735,144,85.102,144,100.383c0,0.903,0.036,1.805,0.08,2.707c-5.151,2.698-9.869,6.087-14.04,10.084   c-1.343-4.123-2.04-8.459-2.04-12.791c0-11.007,4.286-21.356,12.07-29.14l1.587-1.587l-11.314-11.313l-1.587,1.587   c-10.772,10.773-16.717,25.086-16.752,40.316c-4.671,1.812-9.115,4.165-13.217,7.027C96.956,102.538,96,97.458,96,92.383   c0-11.007,4.286-21.356,12.07-29.14l1.587-1.587L98.343,50.343l-1.587,1.587C85.951,62.735,80,77.102,80,92.383   c0,0.264,0.02,0.527,0.023,0.79c-3.839,3.582-7.171,7.637-9.907,12.076C66.131,98.812,64,91.378,64,83.617   c0-6.363,1.505-12.736,4.351-18.429l6.929-13.859L65.299,48C57.535,45.412,51.684,39.336,49.245,31.856z M384,480h-64v-81.373   c0-12.455,4.85-24.164,13.656-32.97l-11.313-11.314C310.515,366.171,304,381.898,304,398.627V480H96v-81.373   c0-16.729-6.515-32.456-18.344-44.285l-11.313,11.314C75.15,374.463,80,386.172,80,398.627V480H16v-78.157   c0-49.12,33.489-90.868,81.439-101.523l43.767-9.726C152.271,288.134,160,278.5,160,267.165V240h-24c-30.879,0-56-25.122-56-56   v-62.568c1.042-2.863,2.379-5.587,3.987-8.138c0.621,1.586,1.292,3.152,2.053,4.675l7.769,15.538l7.849-7.849   c3.706-3.707,8.018-6.742,12.713-9.009c0.949,3.207,2.175,6.332,3.669,9.32l8.969,17.94l7.647-11.47   c3.391-5.086,7.709-9.384,12.72-12.721c0.764,2.135,1.651,4.224,2.664,6.251l7.77,15.54l9.104-9.109   c2.838-2.837,6.609-4.399,10.62-4.4h0.104c3.836,0,7.442,1.493,10.155,4.205c2.712,2.712,4.206,6.318,4.206,10.154   c0,6.71-4.505,12.522-10.956,14.135L160,161.753V168c0,39.701,32.299,72,72,72h8v27.165c0,11.335,7.729,20.969,18.794,23.429   l14.851,3.3C272.583,297.073,272,300.469,272,304c0,8.822,7.178,16,16,16h56.171C369.156,339.622,384,370.017,384,401.843V480z    M356.223,304H288c0-8.822,7.178-16,16-16h14.111c14.083,0,26.745-7.825,33.044-20.422l-14.311-7.156   C333.273,267.563,326.096,272,318.111,272H304c-7.899,0-15.134,2.883-20.722,7.644l-21.014-4.67   c-3.472-0.772-5.957-3.664-6.237-7.152l19.44-15.551C285.358,244.358,297.782,240,310.45,240H400v38.038   C391.241,294.099,374.632,304,356.223,304z M416,224h16v80h-16V224z M480,304h-32v-80h32V304z"></path></g></svg>