<svg xmlns="http://www.w3.org/2000/svg" xmlns:xlink="http://www.w3.org/1999/xlink" version="1.1" x="0px" y="0px" viewBox="0 0 504.002 350.366" style="enable-background:new 0 0 504.002 350.366;" xml:space="preserve"><path d="M498.211,310.423c-0.092,0.046-9.333,4.585-20.186,4.585c-5.353,0-15.194-2.91-24.711-5.724  c-10.908-3.226-21.211-6.272-28.172-6.272c-5.795,0-11.862,1.016-18.887,2.193c-8.803,1.475-18.781,3.146-30.679,3.146  c-16.122,0-30.979-4.236-37.066-6.227v-64.337c10.743-1.265,43.228-4.567,69.342-1.755c31.216,3.361,90.064,26.938,90.655,27.176  c0.49,0.197,0.995,0.29,1.492,0.29c1.584,0,3.084-0.948,3.712-2.507c0.825-2.05-0.168-4.379-2.217-5.205  c-2.454-0.987-60.467-24.228-92.786-27.708c-26.622-2.867-59.425,0.399-70.778,1.722c-1.99-7.793-9.049-13.58-17.454-13.58h-11.068  c8.824-26.276,14.074-47.53,14.589-49.638c0.498-2.04-0.667-4.117-2.667-4.757l-2.748-0.879l6.938-22.19l98.052-10.042l34.207,19.36  c3.536,2.001,7.401,3,11.266,3c3.96,0,7.918-1.05,11.515-3.147c7.106-4.143,11.349-11.528,11.349-19.753v-7.191  c7.157-2.835,12.093-9.784,12.093-17.848V72.128c0-5.713-2.516-11.088-6.902-14.749c-1.578-1.316-3.332-2.349-5.191-3.092V18.016  C491.907,8.082,483.825,0,473.891,0c-7.517,0-14.312,4.739-16.907,11.793L438.89,60.959l-22.334,4.065  c-32.342-10.286-90.022-25.683-120.462-16.044c-12.931,4.095-27.734,19.22-45.223,46.202l-76.712,13.963  c-2.348-1.097-5.017-1.584-7.789-1.282c-1.962,0.212-3.991,0.452-6.057,0.72c0.049-1.142-0.021-2.294-0.244-3.436  c-1.467-7.498-8.308-12.532-15.902-11.709c-17.474,1.891-40.134,5.863-48.862,14.053c-8.81,8.265-34.021,58.878-49.108,92.179  c-1.903,4.2-3.7,8.242-5.372,12.075H4.001c-2.209,0-4,1.791-4,4s1.791,4,4,4H65.86c-5.356,12.016-12.354,28.368-15.155,37.775H4.001  c-2.209,0-4,1.791-4,4s1.791,4,4,4h45.034c-2.493,19.822,7.26,34.401,7.709,35.059c0.774,1.132,2.025,1.74,3.299,1.74  c0.774,0,1.558-0.225,2.247-0.693c1.824-1.239,2.298-3.724,1.064-5.551c-0.099-0.147-9.866-14.904-5.673-33.682  c1.45-6.493,8.181-23.314,18.004-44.996c19.34-42.686,40.998-83.738,47.294-89.646c5.471-5.132,21.599-9.482,44.25-11.933  c3.429-0.365,6.527,1.902,7.189,5.292c0.338,1.729-0.017,3.486-1,4.947c-0.983,1.462-2.477,2.453-4.206,2.791  c-0.001,0-0.002,0.001-0.003,0.001l-30.707,6.005c-2.168,0.424-3.582,2.525-3.158,4.693s2.525,3.58,4.693,3.158l45.194-8.838  c2.278-0.447,4.599,0.022,6.528,1.32c1.929,1.297,3.236,3.268,3.682,5.549c0.921,4.709-2.161,9.29-6.87,10.21l-9.43,1.844  c-1.164,0.228-2.166,0.962-2.737,2.001s-0.651,2.28-0.22,3.385c0.068,0.174,6.732,17.547,0.328,27.835  c-2.662,4.277-9.888,7.588-17.538,11.092c-11.087,5.08-23.653,10.837-27.942,22.327c-2.249,6.025-3.226,18.225-4.462,33.67  c-2.389,29.838-5.999,74.93-22.186,84.149c-24.517,13.963-98.66-4.532-99.407-4.72c-2.141-0.54-4.317,0.756-4.858,2.898  s0.756,4.317,2.898,4.858c2.246,0.568,40.397,10.082,72.183,10.082c13.125,0,25.165-1.622,33.143-6.166  c3.618-2.061,6.688-5.213,9.316-9.186c6.286,0.651,23.045,2.161,43.324,2.16c27.435,0,61.286-2.771,84.276-14.166h75.214  c8.103,0,14.971-5.373,17.238-12.743c7.296,2.263,21.977,6.086,37.861,6.086c12.563,0,22.889-1.73,32-3.256  c6.673-1.118,12.436-2.083,17.566-2.083c5.803,0,16.021,3.021,25.903,5.943c10.526,3.113,20.469,6.053,26.98,6.053  c12.811,0,23.33-5.212,23.771-5.434c1.972-0.991,2.765-3.389,1.778-5.362C502.588,310.239,500.188,309.438,498.211,310.423z   M117.508,121.915c-8.606,8.075-32.858,56.549-48.04,89.829H49.561c1.25-2.833,2.557-5.759,3.922-8.773  c19.341-42.687,41-83.739,47.295-89.646c5.471-5.133,21.599-9.482,44.249-11.934c3.434-0.37,6.527,1.903,7.19,5.292  c0.204,1.043,0.149,2.106-0.143,3.108C138.088,112.097,123.974,115.848,117.508,121.915z M246.189,313.41  c-15.689,9.407-39.221,13.476-61.979,14.956c4.751-17.385,7.165-35.23,7.165-53.133c0-18.287-2.516-37.097-7.472-55.982  c8.807-1.664,16.375-7.552,20.038-15.961c5.789-13.288,14.903-33.413,25.794-54.724l18.086-1.852l67.483,21.584  C309.913,188.996,281.501,292.236,246.189,313.41z M310.962,158.508l-43.249-13.833l49.147-5.033L310.962,158.508z M476.53,141.017  c-4.62,2.693-10.157,2.729-14.811,0.095l-24.395-13.807l46.583-4.771v5.64C483.907,133.522,481.149,138.323,476.53,141.017z   M464.492,14.556c1.443-3.921,5.22-6.556,9.399-6.556c5.523,0,10.016,4.493,10.016,10.016v34.93  c-0.851,0.04-1.704,0.129-2.554,0.284l-33.327,6.066L464.492,14.556z M298.509,56.607c24.304-7.697,68.835,2.251,100.853,11.547  l-137.56,25.039C279.614,67.115,291.496,58.828,298.509,56.607z M183.697,126.014l-1.71,0.334c0.62-2.18,0.733-4.488,0.285-6.776  c-0.247-1.263-0.658-2.448-1.188-3.555l301.702-54.916c3.278-0.598,6.628,0.286,9.188,2.421c2.24,1.869,3.644,4.505,3.959,7.369  l-36.627,5.203c-2.187,0.311-3.708,2.336-3.398,4.523c0.284,1.997,1.996,3.438,3.956,3.438c0.187,0,0.376-0.013,0.567-0.04  l35.57-5.053v15.845h-32.33c-2.209,0-4,1.791-4,4s1.791,4,4,4h32.33v0.329c0,5.769-4.328,10.562-10.066,11.15l-282.366,28.917  c0.063-1.315-0.01-2.655-0.274-4.003c-0.386-1.972-1.123-3.813-2.137-5.479l158.193-26.022c2.18-0.358,3.656-2.416,3.297-4.596  c-0.358-2.18-2.42-3.654-4.596-3.297l-164.88,27.122C190.193,125.713,186.925,125.383,183.697,126.014z M162.309,204.375  c8.775-4.021,17.063-7.817,20.998-14.138c6.211-9.979,3.736-23.502,1.796-30.462l5.006-0.979c4.603-0.901,8.388-3.628,10.768-7.277  l19.396-1.986c-9.947,19.761-18.251,38.13-23.666,50.56c-3.083,7.077-10.071,11.65-17.802,11.65h-30.774  C152.268,208.981,157.328,206.658,162.309,204.375z M121.782,327.357c8.385-18.978,10.753-48.485,12.766-73.62  c1.14-14.236,2.125-26.531,3.983-31.51c0.324-0.868,0.744-1.688,1.217-2.483h36.009c5.053,18.739,7.618,37.392,7.618,55.488  c0,18.065-2.557,36.071-7.593,53.57C152.691,329.706,131.565,328.229,121.782,327.357z M330.51,304.975  c0,5.532-4.5,10.033-10.033,10.033h-63.083c20.281-17.84,37.441-57.094,49.267-90.788h13.815c5.532,0,10.033,4.5,10.033,10.033  V304.975z"></path></svg>