<svg xmlns="http://www.w3.org/2000/svg" xmlns:xlink="http://www.w3.org/1999/xlink" xmlns:xodm="http://www.corel.com/coreldraw/odm/2003" xml:space="preserve" version="1.1" style="shape-rendering:geometricPrecision;text-rendering:geometricPrecision;image-rendering:optimizeQuality;" viewBox="0 0 100000 100000" x="0px" y="0px" fill-rule="evenodd" clip-rule="evenodd"><defs><style type="text/css">
   
    .fil0 {fill:black;fill-rule:nonzero}
   
  </style></defs><g><path class="fil0" d="M68638.91 21428.91c22.37,-7.55 45.51,-13.65 69.37,-18.12l112.99 -21.38c562.36,-120.63 1083.52,-221 1528.15,-287.62l5.89 -0.79c968.15,-178.25 1928.25,-342.46 2945.69,-474.81 -489.52,-433.94 -893.5,-1009.24 -1189.3,-1658.31 -444.78,-975.94 -649.96,-2128.57 -533.68,-3214.54 55.83,-521.47 184.97,-1029.24 396.16,-1497.56 331.19,-734.39 425.9,-1198.76 260.41,-1483.34 -180.34,-310.11 -695.05,-533.67 -1565.93,-760.4 -719.02,-187.2 -1499.49,-427.54 -2060.01,-821.22 -681.56,-478.69 -1045.9,-1137.49 -702.79,-2092.03 795.44,-2212.94 334.83,-2921.27 -532.86,-3233.15 -384.59,-138.24 -858.84,-224.43 -1348.97,-313.48 -577.5,-104.93 -1175.12,-213.53 -1736.49,-418.16 -47.7,45.7 -101.58,93.87 -162.33,145.15 -430.46,363.36 -819.69,780.66 -1120.46,1318.45 -304.59,544.59 -526.41,1222.91 -621.36,2108.67 -52.32,488.12 -264.8,964.08 -573.73,1394.28 -325.73,453.6 -763.12,860.42 -1229.27,1174.08 -721.78,485.66 -1053.82,888.47 -1122.47,1230.65 -56.42,281.21 95.59,565.32 356.01,845 256.21,275.16 456.41,543.95 535.87,1013.76 68.4,404.35 28.77,941.71 -177.23,1764.75 -26.51,105.93 -49.44,204.18 -67.98,292.68 -129.43,617.65 -183.15,1262.98 -48.44,1775.2 111.94,425.65 373.92,760.98 875.04,886.4 31.25,7.82 53.36,13.11 65.9,15.73 1374.41,288.04 2307.58,657.86 2989.91,1125.38 663.72,454.78 1081.91,990.2 1423.31,1623.03 106.46,13.41 212.84,28.01 319.23,43.95 208.46,31.23 416.85,67.45 625.98,109.32 47.81,-32.03 101.92,-56.41 161.04,-70.95 663.87,-165.08 1349.03,-330 2023.66,-478.93 33.02,-7.29 65.91,-14.52 98.69,-21.69zm-28903.75 6222.99l0.16 0.05 3.25 1.02 44.62 13.96c742.96,231.23 1453.84,389.21 2120.53,445.38 658.85,55.5 1271.18,11.62 1823.95,-160.08 267.41,-82.19 550.83,67.95 633.02,335.36 82.19,267.41 -67.95,550.83 -335.36,633.02 -57.31,17.8 -115,34.48 -173.04,50.11 1292.9,428.27 2593.78,876.4 3909.44,1358.09 241.26,88.33 490.99,174.31 747.57,257.86 11.38,3.27 22.58,6.9 33.59,10.91 1024.63,332.03 2157.33,625.42 3299.36,875.19 1543.3,337.53 3096.01,594.14 4420.91,758.57 11.92,-131.72 22.9,-271.96 30.38,-420.56 74.22,-1474.63 -3.32,-3533.33 -339.65,-5341.71 -247.78,-1332.25 -630.53,-2512.78 -1187.17,-3176.65 -1889.95,-239.86 -3730.06,-502.54 -5650.84,-821.68 -2028.81,-337.09 -4119.2,-733.22 -6418.09,-1227.15 -2881.1,-619.02 -7309.33,-1168.18 -11303.92,-1663.55l-221.17 -27.43c-657.32,-81.52 -1287.48,-160.54 -1896.9,-236.92 -3167.57,-397.07 -5774.74,-723.9 -8725.63,-972 -2425.48,-203.91 -4165,-366.09 -5879.89,-707.09 -1718.67,-341.74 -3396.17,-860.57 -5687.25,-1776.41 -681.07,-272.25 -1147.49,-309.05 -1384.63,-194.07 -33.49,16.23 -53.14,32.77 -58.36,48.35 -12.92,38.54 -4.59,101.45 26.18,185.98 155.86,428.07 735.43,989.33 1830.08,1512.82 278.05,132.96 450.39,218.92 640.36,313.66 987.31,492.39 2362.86,1178.4 3233.99,1341.41 788.4,147.53 1205.74,360.23 1378.01,696.22 210.39,410.34 44.15,791.82 -320.61,1271.46 -135.23,177.8 -209.66,324.43 -231.95,443.39 -18.63,99.4 26.45,185.73 118.45,260.11 149.9,121.19 383.91,219.99 677.81,299.24l5.79 1.56c54.92,14.73 111.94,28.77 170.86,42.16 1054.25,239.5 2609.2,233.19 3997.32,110.33 1595.23,-141.2 2895.38,-87.2 4172.68,141.52 18.54,2.31 37.13,5.65 55.68,10.09 1269.62,232.52 2498.3,634.18 3966.27,1186.51 3691.17,1388.8 7241.96,2492.96 10775.92,3591.88 566.33,176.11 1132.23,352.08 1698.28,529.09zm33850.97 14623.99c37.99,-182.65 216.87,-299.93 399.52,-261.94 182.65,37.99 299.93,216.87 261.94,399.52 -348.83,1657.41 -623.47,3150.26 -837.1,4507.09 -214.17,1360.28 -368.77,2592.39 -476.69,3723.17 -17.53,185.57 -182.2,321.8 -367.77,304.27 -185.57,-17.53 -321.8,-182.2 -304.27,-367.77 108.85,-1140.57 265.15,-2385.62 481.99,-3762.85 217.38,-1380.69 493.92,-2885.85 842.38,-4541.49zm-25774.09 -8781.52c-1199.7,-340.12 -3832.5,-1256.76 -6999.88,-2453.71 -2849.45,-1076.8 -6136.65,-2382.07 -9204.57,-3698.96 -1438.06,-617.28 -2553.44,-1229.29 -3614.5,-1811.5 -1510.46,-828.79 -2908.29,-1595.74 -4939.79,-2200.98 -1177.6,-209.91 -2392.3,-257.79 -3899.65,-124.37 -1469.05,130.03 -3136.3,131.78 -4306.9,-134.15 -67.36,-15.3 -133.31,-31.56 -197.75,-48.78 -568.22,-115.59 -1117.04,-168.69 -1628.48,-141.71 -458.16,24.17 -885.64,114 -1268.47,282.96 -911.5,402.29 -1616.13,253.5 -2050.65,-83.22 -162.98,-126.29 -287.88,-277.44 -373.2,-437.93 -89.28,-167.93 -137.76,-351.63 -143.76,-534 -13.74,-417.15 189.77,-804.59 627.45,-992.51 83.43,-35.82 152.1,-70.28 205.3,-102.67 -223.83,-113.89 -617.39,-209.87 -1210.63,-266.93 -684.34,-65.83 -1377.68,-138.02 -2039.25,-227.5 -682.9,-92.37 -1336.08,-202.34 -1919.8,-340.98 -680.68,-161.67 -1063.31,-601.3 -1188.78,-1093.06 -53.76,-210.72 -56.96,-432.09 -13.38,-646.09 43.21,-212.07 132.65,-414.58 264.63,-589.7 310.32,-411.81 844.82,-678.13 1548.75,-564.47 716.75,115.73 1487.56,239.19 2269.27,338.22l56.07 7.05c-633.79,-469.91 -1015.42,-958.13 -1170.35,-1383.65 -111.27,-305.61 -120.14,-596.23 -34.12,-852.72 93.72,-279.44 289.2,-499.56 578.26,-639.71 471.1,-228.42 1231.02,-221.93 2202.21,166.29 2222.74,888.52 3846.25,1391.09 5504.67,1720.85 1662.19,330.52 3375.93,490.05 5768.77,691.21 2975.03,250.13 5589.22,577.84 8765.33,975.98 609.42,76.38 1239.58,155.4 1896.9,236.92l221.17 27.43c4009.61,497.24 8454.49,1048.46 11391.22,1679.43 2298.5,493.84 4372.28,887.21 6370.47,1219.21 1809.31,300.62 3580.46,554.24 5418.9,789.28 316,-249.67 933.22,-386.65 1648.88,-456.05 898.71,-87.14 1974.44,-74.44 2376.81,-69.66 910.83,10.82 1741.18,-0.78 2514.17,-11.58 1048.98,-14.65 1994.42,-27.84 2902.29,16.67 -196.52,-250.65 -429.73,-475.96 -724.15,-677.7 -575.26,-394.16 -1392.39,-712.33 -2624.79,-970.6 -45.65,-9.56 -80.75,-17.44 -105.58,-23.65 -925.16,-231.56 -1406.31,-841.02 -1609.26,-1612.7 -180.18,-685.1 -120.58,-1489.78 36.54,-2239.54 25.61,-122.2 50.96,-232.74 75.9,-332.36 168.9,-674.82 207.16,-1081.35 161.37,-1352.01 -34.7,-205.19 -140.77,-342.6 -277.91,-489.88 -472.7,-507.68 -738.12,-1075.65 -606.03,-1734 119.86,-597.38 582.31,-1221.73 1551.09,-1873.59 371.48,-249.96 717.34,-570.4 971.29,-924.04 210.91,-293.7 354.62,-606.01 387.21,-910.1 110.66,-1032.25 376.8,-1836.42 744.38,-2493.63 371.37,-664.01 838.6,-1167.99 1350.66,-1600.23 24.81,-20.94 24.06,-22.51 22.13,-26.46 -10.3,-21.09 -21.19,-43.35 -55.67,-117.78 -480.8,-1037.59 -193.35,-1933.78 611.27,-2632.64 705.07,-612.39 1837.2,-1050.13 3179.46,-1263.12 1303.33,-206.82 2819.68,-207.15 4338.96,46.87 3830.42,640.45 7707.02,2887.23 8381.65,7496.19 611.61,4178.46 -1301.6,6911.78 -2840.67,9110.57 -885.01,1264.37 -1633.35,2333.56 -1590.56,3302.86 284.18,6.16 533.36,45.77 747.9,115.76 406.84,132.73 692.29,370.24 860.46,696.11 158.53,307.21 197.62,673.95 121.82,1086.57 -79.28,431.64 -290.54,926.8 -626.79,1463.65 -589.63,941.39 -467.49,1211.59 -15,2212.51 14.25,31.53 28.88,63.86 141.36,316.23 828.07,1857.93 1334.18,4068.5 1508.07,6345.76 175.49,2298.39 14.03,4672.6 -495.02,6827.03 -753.78,3190.21 -1265.41,5858.27 -1602.92,8147.45 -337.62,2289.99 -501.2,4193.42 -558.75,5856.65 -44.61,1288.91 82.66,2630.57 208.78,3960.2 161.16,1698.98 320.43,3378.98 134.03,4964.8 2819.9,-386.06 5699.7,135.51 8325.52,1253.64 3069.65,1307.13 5799.09,3433.59 7679.86,5877.67 407.49,529.54 787.76,1080.71 1140.1,1650.19 2384.43,3853.83 3426.19,8474.22 2931.62,12854.55 -496.92,4401.18 -2539.76,8563.1 -6323.54,11474.78 -448.27,344.96 -922.86,673.35 -1424.13,983.49 -3575.79,2212.39 -13711.55,3579.53 -23212.33,3080.84 -7589.36,-398.36 -14817.83,-1988.86 -18080.82,-5290.81 -1330.1,-1345.99 -2316.13,-2859.51 -3002.77,-4453.48 -1311.51,-3044.55 -1531.33,-6384.11 -971.15,-9408.3 561.8,-3032.92 1912.15,-5758.09 3736.94,-7561.35 359.9,-355.65 738.33,-675.92 1133,-956.29 -3099.54,-427.4 -5844.02,-1212.27 -7635.41,-2405.16 -536.2,2688.69 -1260.51,4899.47 -2017.16,7208.76 -1018.97,3109.84 -2097.41,6401.22 -2841.13,11309.7 -72.06,475.65 -117.41,917.77 -160.63,1339.32 -172.05,1678.02 -315.99,3080.44 -1471.84,3588.06 454.14,949.25 717.69,1894.62 717.69,2740.13 0,580.12 -122.57,1118.67 -389.48,1588.8 -269.92,475.39 -681.66,868.58 -1256.44,1149.8 -610.66,298.76 -1402.02,467.83 -2399.3,467.83 -2611.43,0 -4445.07,144.33 -6229.74,284.81 -2036.13,160.26 -4009.21,315.57 -7006.38,249.38 -1184.57,-26.15 -2351.76,-214.77 -3200.26,-632.67 -813.77,-400.79 -1353.37,-1005.55 -1407.01,-1868.43 -21.77,-350.24 37.66,-683.69 184.68,-989.31l-2636.83 -64.57c-1497.12,-36.65 -2490.5,-549.37 -2968.65,-1202.45 -222.74,-304.23 -339.53,-640.96 -350.69,-983.14 -11.23,-344.77 84.69,-685.51 287.38,-995.09 419.41,-640.59 1313.28,-1153.23 2663.77,-1238.25 2407.98,-151.6 3268.2,-441.53 4160.58,-742.3 684.33,-230.65 1386.34,-467.26 2714.47,-659.04 1539.73,-222.34 2464.01,-961.35 3032.8,-1838.65 480.5,-741.12 722.15,-1593.3 865.51,-2329.08 -212.96,-47.98 -424.69,-102.39 -632.9,-163.88 -936.02,-276.44 -1805.43,-697.54 -2419.03,-1317.4 -305.82,-308.94 901.51,-5929.52 2436.72,-11782.73 1262.48,-4813.36 2698.98,-9850.25 3595.53,-12185.04 1177.45,-3066.3 2807.75,-4670.67 4624.61,-5436.74 1775.73,-748.73 3691.77,-679.01 5527.76,-389.69 2908.94,-673.49 6740.71,46.8 11156.57,876.95 1989.44,374 4100.02,770.76 6292.24,1070.07 5.52,-43.21 16.71,-86.42 34.06,-128.64 2192.77,-5338.94 1885.98,-9803.53 1587.8,-14142.83 -155.04,-2256.31 -307.77,-4479.59 -117.18,-6787.95 -567.39,-96.47 -1346.26,-259.09 -2061.68,-428.64 -875.06,-207.38 -1680.38,-434.53 -1945.55,-581.62 -427.52,-237.14 -676.23,-538.88 -796.02,-1005.33zm-16942.63 -7602.14c358.03,172.29 734.46,344.86 1135.06,516.81 3055.72,1311.65 6328.53,2611.23 9164.87,3683.08 2863.58,1082.14 5276.56,1930.39 6564.38,2322.03 12.56,-286.07 41.97,-612.2 83.59,-989.25 -137.11,-47.15 -272.15,-95.01 -404.84,-143.59 -2684.29,-982.76 -5309.89,-1826.09 -7932.41,-2646.47l-33 -10.32c-570.55,-178.44 -1140.95,-355.82 -1711.8,-533.33 -2268.16,-705.31 -4543.26,-1412.77 -6865.85,-2198.96zm17934.57 5849.48c-61.83,595.24 -84.31,1024.97 -43.57,1329.67 36.72,274.65 138.61,431.7 339.77,543.28 172.67,95.78 882.72,287.69 1687.59,478.44 676.17,160.24 1402.01,313.1 1933.37,405.76 73.47,-576.88 170.76,-1159.96 297.29,-1751.09 -460.81,-86.95 -926.43,-181.32 -1390.5,-282.82 -963.59,-210.74 -1923.35,-452.68 -2823.95,-723.24zm4865.97 3380.43c-0.41,4.71 -0.87,9.42 -1.41,14.15l-0.48 3.76c-245.71,2401.02 -85.94,4727.18 76.45,7090.4 303.68,4419.32 615.59,8965.46 -1612.62,14470.17 320.43,38.51 642.47,74.57 965.94,107.87 79.63,-11.33 162.36,-3.83 241.14,24.33 366.06,36.02 733.94,68.36 1103.48,96.5 38.27,2.85 75.22,9.9 110.46,20.62 1246.15,92.16 3195.65,285.41 5327.46,1006.08 782.82,264.64 1696.63,605.1 2661.81,1080.04 971.12,477.88 1995.15,1092.17 2993.01,1902.86 216.99,176.44 249.87,495.4 73.43,712.39 -176.44,216.99 -495.4,249.87 -712.39,73.43 -829.55,-673.94 -1682.85,-1204.38 -2505.38,-1629.91 917.97,1248.03 1607.25,2807.72 2291.18,4355.75 911.88,2063.99 1813.88,4105.59 3191.57,5187.63l51.88 -18.87c3231.24,-1173.87 6144.78,-2232.33 6938.15,-6840.07 278.32,-1616.51 107.81,-3414.12 -64.84,-5234.35 -129.17,-1361.83 -259.52,-2735.98 -212.76,-4087.22 59.26,-1712.5 225.32,-3656.28 566.69,-5971.73 341.5,-2316.27 858.28,-5012.05 1618.8,-8230.79 485.44,-2054.47 639.1,-4322.52 471.2,-6521.45 -165.58,-2168.52 -642.48,-4262.21 -1420.75,-6008.4 -13.24,-29.71 -66.56,-146.82 -141.36,-312.27 -627.15,-1387.28 -796.44,-1761.77 82.46,-3165.01 266.71,-425.83 431.12,-801.36 487.89,-1110.43 34.59,-188.32 26.37,-337.09 -26.56,-439.67 -43.29,-83.89 -133.56,-150.53 -273.1,-196.05 -188.49,-61.49 -447.48,-81.58 -780.64,-54.21 -1686.45,138.6 -3149.83,377.47 -4631.86,650.11 -13.94,3.26 -28.12,5.98 -42.54,8.09l-8.07 1.21c-382.31,70.5 -766.05,143.22 -1155.36,216.97l-364.62 68.99c-69.46,14.97 -139.39,30.23 -209.71,45.76 -157.03,34.67 -318.48,71.22 -483.26,109.27 109.18,40.65 219.11,83.18 329.93,127.72 994.2,399.56 2055.42,959.27 3254.94,1741.82 234.53,152.33 301.16,465.96 148.83,700.49 -152.33,234.53 -465.96,301.16 -700.49,148.83 -1141.15,-744.48 -2145.1,-1274.68 -3080.32,-1650.54 -923.46,-371.14 -1783.07,-591.97 -2645.43,-721.15 -1350.38,-202.28 -2714.63,-183.22 -4333.44,-160.61 -778.26,10.87 -1614.27,22.55 -2537.97,11.58 -386.33,-4.59 -1419.16,-16.79 -2269.65,65.68 -237.08,22.99 -613.62,-139.56 -806.87,-205.58 33.39,66.86 52.32,141.66 53.24,219.83 600.07,823.12 1005.35,2080.2 1262.04,3460.35 351.51,1890 432.8,4036.53 355.53,5571.89 -13.8,274.17 -37.89,515.8 -59.37,731.33 -17.98,180.45 -34.03,341.36 -38.84,471.43 -15.63,423.13 219.38,569.72 1839.2,629.58 1958.46,72.38 3621.79,427.19 5119.8,746.74 2274.56,485.19 4147.54,884.72 5941.44,-0.35 250.96,-123.83 554.82,-20.77 678.65,230.19 123.83,250.96 20.77,554.82 -230.19,678.65 -2110.68,1041.36 -4138.11,608.89 -6600.24,83.69 -1461.99,-311.86 -3085.31,-658.15 -4945.18,-726.88 -2341.66,-86.54 -2804.51,-441.92 -2818.49,-1458.31 -677.84,-83.23 -1413.6,-189.92 -2176.4,-318.55 -159.71,740.96 -271.3,1472 -346.01,2196.22zm16917.4 40630.38c168.77,-79.63 370.16,-7.38 449.79,161.39 79.63,168.77 7.38,370.16 -161.39,449.79 -1104.42,522.53 -2259.91,997.07 -3422.11,1426.25 -1161.33,428.85 -2331.28,813.26 -3464.8,1155.48 -179,53.33 -367.35,-48.54 -420.68,-227.54 -53.33,-179 48.54,-367.35 227.54,-420.68 1120.36,-338.25 2276.86,-718.24 3425.1,-1142.26 1147.33,-423.69 2284.58,-890.53 3366.55,-1402.43zm2460.35 -4174.66c151.97,-108.13 362.83,-72.59 470.96,79.38 108.13,151.97 72.59,362.83 -79.38,470.96 -2559.68,1824.91 -5989.12,3244.78 -9269.8,4315.36 -3270.83,1067.37 -6390.91,1787.74 -8348,2215.09 -182.65,39.45 -362.72,-76.64 -402.17,-259.29 -39.45,-182.65 76.64,-362.72 259.29,-402.17 1945.31,-424.78 5045.04,-1140.3 8281.86,-2196.57 3226.96,-1053.05 6593.08,-2444.56 9087.24,-4222.76zm-23576.11 -489.82c30.01,0.22 59.79,3.11 88.99,8.55 514.71,49 1036.86,89.2 1563.83,120.63 5664.15,337.75 11822.34,-342.36 15123.11,-1775.52 -1018.28,-1241.94 -1753.18,-2905.14 -2494.17,-4582.34 -1118.67,-2532.04 -2252.44,-5097.77 -4315.72,-5983.31 -2199.89,-724.28 -4212.63,-863.59 -5348.39,-942.16 -408.04,-28.23 -718.5,-49.72 -938.36,-100.07 -2995.86,-300.1 -5864.19,-839.26 -8519.05,-1338.35 -4890.6,-919.4 -9041.15,-1699.68 -11780.14,-554.76 -760.23,317.79 -1407.32,847.31 -1973.33,1543.6 -586.44,721.43 -1087.77,1622.54 -1537.52,2654.53 -2016.13,4626.11 -3000.08,11222.73 -3983.87,17818.45 -385.44,2584.14 -770.88,5168.17 -1231.4,7700.38 -120.62,663.27 -252.42,1354.68 -388.24,2025.94 -126.75,626.4 -251.97,1213.92 -368.78,1719.47 -265.79,1150.37 168.38,1261.33 1185.7,1521.29 92.08,23.53 188.77,48.23 415.16,108.59 10.71,2.49 21.27,5.29 31.66,8.42 948.23,251.52 2496.92,548.17 4034.85,771.74 1349.12,196.13 2684.18,334.77 3585.02,334.77 1294.64,0 1425.22,-1273.42 1589.85,-2879.06 46.55,-454.02 95.39,-930.19 164.59,-1386.96 755.43,-4985.78 1848.27,-8321.08 2880.83,-11472.42 792.69,-2419.29 1549.37,-4728.66 2083.61,-7604.4 -151.08,-143.71 -290.35,-292.05 -416.45,-445.33 -177.54,-215.89 -146.44,-534.85 69.45,-712.39 215.89,-177.54 534.85,-146.44 712.39,69.45 138.83,168.76 296.82,331 472.15,487.01 32.09,22.1 61.33,47.73 87.27,76.21 1788.1,1520.29 5272.67,2425.05 9206.96,2808.04zm81.34 1025.23c-752.4,342.86 -1458.94,848.92 -2102.35,1484.73 -1679.69,1659.87 -2926.75,4190.45 -3451.18,7021.59 -526.04,2839.88 -320.95,5972.83 907.65,8824.9 639.71,1485.02 1556.77,2893.5 2792.43,4143.92 3062.76,3099.32 10040.79,4602.36 17410.1,4989.17 9323.79,489.4 19204.04,-811 22628.91,-2930.02 467.2,-289.06 912.76,-597.61 1336.83,-923.95 3549.76,-2731.6 5467.11,-6643.61 5934.6,-10784.22 469.86,-4161.42 -519.72,-8550.72 -2784.78,-12211.61 -331.6,-535.96 -691.98,-1057.92 -1080.56,-1562.89 -1778.94,-2311.75 -4364.42,-4324.71 -7275.06,-5564.13 -2565.85,-1092.6 -5379,-1580.76 -8104.85,-1136.43 -1010.62,4751.71 -4090.51,5871.1 -7493.91,7107.51l-306.26 111.39c-166.79,60.46 -344.62,27.89 -476.75,-71.09 -172.93,-120.58 -338.46,-252.01 -497.56,-392.9 -3362.35,1595.17 -9932.78,2367.35 -15925.32,2010.02 -508.53,-30.32 -1013.21,-69 -1511.94,-115.99zm-28027.72 13963.95c-161.79,836.29 -440.21,1818.98 -1012.29,2701.36 -711.09,1096.79 -1853.95,2018.86 -3739.24,2291.09 -1242.32,179.39 -1897.36,400.17 -2535.89,615.38 -958.07,322.91 -1881.61,634.18 -4418.54,793.9 -995.57,62.67 -1617.97,384.75 -1877.95,781.83 -87.42,133.53 -129.04,273 -124.66,407.71 4.47,137.27 56.49,279.42 156.21,415.62 311.68,425.71 1030.19,761.67 2174.91,789.69l3580.59 87.68c543.81,-314.46 1295.33,-533.02 2275.29,-613.36 598.06,-49.03 1200.59,-181.19 1796.65,-311.92 615.53,-135.01 1224.57,-268.6 1854.46,-320.13 1357.15,-111.05 2502.78,-322.46 3333.51,-713.49 577.37,-271.78 997.94,-634.01 1222.6,-1117.82 -1623.94,-415.73 -2310.16,-632.04 -1830.53,-2707.9 126.12,-545.84 249,-1119.3 364.82,-1691.69 85.33,-421.73 169.55,-854.34 250.71,-1284.84 -455.31,-13.73 -956.32,-51.98 -1470.65,-123.11zm11275.36 7249.57c-26.14,-53.45 -41.96,-109.27 -48.31,-165.2 -43.05,1.36 -86.62,2.3 -131.32,2.3 -943.71,0 -2330.82,-143.57 -3727.9,-346.67 -1345.08,-195.53 -2704.79,-447.5 -3685.78,-679.64 -303,800.45 -920.59,1374.22 -1786.4,1781.78 -955.82,449.91 -2216.96,688.49 -3686.73,808.75 -559.09,45.74 -1136.22,172.33 -1719.52,300.27 -627.91,137.72 -1262.64,276.94 -1931.59,331.78 -922.57,75.63 -1573.24,279.16 -1985.88,565.63 -371.77,258.1 -531.54,591.96 -509.01,954.39 27.55,443.18 351.66,776.93 843.43,1019.13 706.99,348.2 1722.55,506.31 2771.64,529.47 2919.69,64.48 4882.07,-89.99 6907.16,-249.38 1809.49,-142.43 3668.62,-288.77 6309.12,-288.77 841.46,0 1484.02,-130.34 1954.8,-360.67 380.07,-185.95 648.43,-439.05 819.88,-741.02 174.43,-307.24 254.54,-677.22 254.54,-1088.74 0,-714.9 -238.65,-1536.48 -648.13,-2373.41zm-1161.94 -37890.56c-1069.65,-31.36 -2127.06,93.31 -3111.69,508.48 -1578.96,665.76 -3009.94,2096.96 -4072.95,4865.24 -879.47,2290.31 -2303.66,7288.64 -3559.81,12077.88 -1459.36,5564.02 -2763.11,10749.24 -2698.66,10814.35 481.11,486.01 1199.22,826.95 1986.45,1059.44 1001.03,295.62 2106.14,411.72 2999.86,426.91 421.25,-2351.41 796.15,-4864.67 1171.04,-7378.08 993.42,-6660.26 1987,-13321.45 4059.29,-18076.43 484.17,-1110.96 1031.05,-2089.87 1680.38,-2888.67 460.52,-566.52 971.41,-1041.84 1546.09,-1409.12zm42864.78 -35203.91c40.15,-1214.6 840.17,-2357.87 1774.63,-3692.88 1435.49,-2050.8 3219.93,-4600.15 2666.03,-8384.29 -595.68,-4069.58 -4088.48,-6065.11 -7544.23,-6642.91 -1412.6,-236.18 -2814.71,-237.1 -4013.52,-46.87 -1159.87,184.05 -2113.68,541.05 -2675.44,1028.96 -448.84,389.84 -612.97,881.61 -353.29,1442.02l47.73 97.94c11.8,24.17 23.27,47.64 34.33,70.49 532.01,227.53 1159.68,341.6 1762.98,451.22 532.54,96.76 1047.82,190.4 1511.69,357.14 1418.64,509.92 2220.4,1532.52 1144.04,4526.97 -147.44,410.19 22.22,702.49 333.69,921.25 432.51,303.77 1104.14,507.3 1730.61,670.4 1140.93,297.04 1850.16,649.97 2189.03,1232.68 353.72,608.25 262.95,1353.14 -212.79,2408.06 -166.23,368.64 -268.24,771.61 -312.82,1188 -97.15,907.26 74.47,1870.65 446.38,2686.7 343.75,754.29 853.67,1373.35 1470.95,1685.12zm-64524.37 -1400.22c-801.03,-29.87 -1601.97,-107.37 -2378.04,-205.67 -813.52,-103.06 -1584.89,-226.56 -2301.03,-342.2 -280.78,-45.33 -477.8,39.42 -580.37,175.53 -41.29,54.79 -69.03,116.9 -82.07,180.92 -12.64,62.09 -11.19,128.4 5.46,193.65 38.79,152.05 178.25,293.03 438.68,354.88 566.07,134.45 1183.33,238.9 1820.58,325.1 658.56,89.07 1335.16,159.62 1999.57,223.54 870.81,83.77 1453.44,268.11 1782.55,495.52 219.88,151.93 356.2,334.91 414.83,538 69.29,240 28.72,474.05 -112.76,692.4 -145.48,224.52 -411.53,427.2 -777.67,584.4 -8.75,3.75 -12.72,14.94 -12.29,28.09 0.81,24.62 10.47,55.29 28.66,89.5 22.14,41.64 54.1,80.52 95.38,112.51 179.21,138.87 516.53,179.64 1022.75,-43.78 497.15,-219.42 1044.57,-335.66 1625.65,-366.32 48.61,-2.57 97.47,-4.51 146.55,-5.87 -47.49,-173.22 -54.29,-362.66 -15.53,-569.43 50.35,-268.68 186.45,-557.73 422.45,-868.03 122.97,-161.7 249.24,-153.34 225.37,-199.9 -14.24,-27.78 -214.74,-76.44 -663.65,-160.44 -892.98,-167.09 -2117.21,-743.85 -3105.07,-1232.4z"></path></g></svg>