<svg xmlns="http://www.w3.org/2000/svg" xmlns:xlink="http://www.w3.org/1999/xlink" version="1.1" x="0px" y="0px" viewBox="0 0 100 100" enable-background="new 0 0 100 100" xml:space="preserve"><path d="M7.521,91.005c-0.463,0-0.908-0.184-1.236-0.511c-0.329-0.328-0.514-0.774-0.514-1.239v-1.218  c0-3.076,2.909-20.146,4.719-21.955c0.484-0.485,15.582-6.291,17.378-7.051c-2.661-3.138-3.942-7.058-4.371-8.604  c-1.493-1.382-2.376-3.802-2.376-6.566c0-0.121-0.011-0.316-0.023-0.574c-0.114-2.327-0.409-8.33,1.629-12.842  c2.24-4.963,6.793-7.642,9.939-7.642c0.802,0,1.537,0.161,2.187,0.478c0.063,0.031,0.119,0.057,0.171,0.081  c0.473-0.623,1.243-1.413,2.801-1.779c0.631-0.148,1.278-0.221,1.978-0.221c3.679,0,8.919,2.125,11.729,6.791  c2.069,3.436,3.119,8.701,3.119,15.649c0,2.872-0.8,5.222-2.206,6.58c-0.869,3.509-2.177,6.186-4.098,8.396  c-0.03,0.032-0.126,0.132-0.28,0.283c1.805,0.72,17.192,6.267,17.876,6.799c2.36,1.838,4.113,20.347,4.113,21.808v1.445  c0,0.965-0.731,1.892-1.696,1.894H7.525C7.524,91.005,7.522,91.005,7.521,91.005z M13,68.613  c-0.971,2.317-3.489,14.671-3.713,18.888h57.322c-0.097-3.978-2.023-16.711-2.983-18.966c-1.068-0.501-17.675-6.466-18.569-7.019  c-1.916,1.302-4.474,2.577-7.145,2.577c-2.865,0-5.391-1.282-7.188-2.55C29.789,62.099,14.152,68.079,13,68.613z M26.8,49.231  c0.275,1.064,1.358,4.756,3.761,7.563c0.017,0.019,3.408,3.798,7.352,3.798c3.158,0,6.736-3.013,7.849-4.173  c1.537-1.771,2.622-4.07,3.357-7.173l0.058-0.235c0.09-0.368,0.296-0.697,0.589-0.938l0.181-0.148  c0.595-0.496,1.205-1.947,1.205-4.054c0-6.373-0.881-11.031-2.617-13.914c-1.994-3.31-5.987-5.096-8.731-5.096  c-0.426,0-0.811,0.042-1.177,0.128c-0.569,0.134-0.676,0.286-0.934,0.652C37.443,26,37.131,26.45,36.542,26.75l-0.421,0.215  c-0.584,0.298-1.28,0.244-1.809-0.131c-0.307-0.097-0.637-0.231-0.997-0.408c-0.163-0.08-0.388-0.122-0.649-0.122  c-1.773,0-5.105,1.94-6.75,5.582c-1.69,3.743-1.425,9.134-1.325,11.164c0.02,0.4,0.03,0.655,0.03,0.813  c0,2.071,0.674,3.538,1.342,4.074l0.182,0.146c0.294,0.237,0.504,0.563,0.599,0.928L26.8,49.231z M58.344,39.402  c-0.578,0-1.124-0.286-1.452-0.773c-0.371-0.552-0.397-1.266-0.068-1.843c0.091-0.16,1.85-3.244,2.997-5.187  c-1.951-2.389-2.903-4.928-2.903-7.729c0-8.202,8.369-14.875,18.655-14.875c10.287,0,18.656,6.673,18.656,14.875  s-8.369,14.875-18.656,14.875c-2.537,0-4.21-0.188-6.527-0.741l-10.472,1.383C58.496,39.397,58.42,39.402,58.344,39.402z   M75.572,12.495c-8.356,0-15.155,5.103-15.155,11.375c0,2.256,0.926,4.325,2.83,6.325c0.55,0.577,0.641,1.453,0.221,2.13  c-0.388,0.625-1.132,1.898-1.844,3.129l7.269-0.96c0.192-0.026,0.386-0.018,0.575,0.019l0.15,0.03  c2.231,0.542,3.606,0.702,5.954,0.702c8.357,0,15.156-5.103,15.156-11.375S83.93,12.495,75.572,12.495z M84.026,29.118H66.12  c-0.967,0-1.75-0.784-1.75-1.75s0.783-1.75,1.75-1.75h17.906c0.967,0,1.75,0.784,1.75,1.75S84.993,29.118,84.026,29.118z   M84.026,22.366H66.12c-0.967,0-1.75-0.784-1.75-1.75s0.783-1.75,1.75-1.75h17.906c0.967,0,1.75,0.784,1.75,1.75  S84.993,22.366,84.026,22.366z"></path></svg>