<svg xmlns="http://www.w3.org/2000/svg" xmlns:xlink="http://www.w3.org/1999/xlink" version="1.1" x="0px" y="0px" viewBox="0 0 100 100" style="enable-background:new 0 0 100 100;" xml:space="preserve"><g><path d="M24.441412,31.3120117l-3.4838867-0.5l-1.5625-3.1660156c-0.3374023-0.6831055-1.0200195-1.1074219-1.7817383-1.1074219   s-1.4443359,0.4243164-1.7817383,1.1074219l-1.5522461,3.1582031l-3.4936523,0.5078125   c-0.7539063,0.1098633-1.3686523,0.6279297-1.6040039,1.3525391s-0.0424805,1.5048828,0.5029297,2.0361328l2.5239258,2.4526367   l-0.5966797,3.4794922c-0.128418,0.7509766,0.1743164,1.4956055,0.7910156,1.9433594   c0.6162109,0.4482422,1.4194336,0.5053711,2.0917969,0.1513672l3.112793-1.6430664l3.125,1.6430664   c0.2929688,0.1542969,0.6103516,0.2299805,0.9257813,0.2299805c0.4106445,0,0.8183594-0.128418,1.1669922-0.3818359   c0.6157227-0.4482422,0.918457-1.1928711,0.7895508-1.9428711l-0.6010742-3.4672852l2.5288086-2.4648438   c0.5454102-0.53125,0.737793-1.3120117,0.5024414-2.0361328C25.809576,31.9399414,25.1948299,31.421875,24.441412,31.3120117z    M21.6176815,35.7329102c-0.4677734,0.456543-0.6811523,1.1132813-0.5712891,1.7583008l0.6162109,3.4658203l-3.1254883-1.6435547   c-0.578125-0.3027344-1.269043-0.3032227-1.8481445,0.0004883l-3.1054688,1.6567383l0.5961914-3.4785156   c0.1113281-0.6445313-0.1020508-1.3022461-0.5708008-1.7587891l-2.5351563-2.4418945l3.4926758-0.5078125   c0.6474609-0.0932617,1.2070313-0.5,1.496582-1.0869141l1.5361328-3.1699219l0.0019531,0.0039063l1.5634766,3.1669922   c0.2900391,0.5869141,0.8496094,0.9926758,1.4951172,1.0859375l3.4868164,0.4848633L21.6176815,35.7329102z"></path><path d="M90.818367,32.6645508c-0.2353516-0.7246094-0.8500977-1.2426758-1.6040039-1.3525391l-3.4833984-0.5l-1.5625-3.1660156   c-0.3374023-0.6831055-1.0200195-1.1074219-1.7817383-1.1074219s-1.4443359,0.4243164-1.7817383,1.1074219l-1.5527344,3.1582031   l-3.4936523,0.5078125c-0.753418,0.1098633-1.3681641,0.6279297-1.6035156,1.3525391   c-0.2353516,0.7241211-0.0429688,1.5048828,0.5029297,2.0366211l2.5239258,2.4521484l-0.5961914,3.4790039   c-0.1293945,0.7504883,0.1733398,1.4951172,0.7890625,1.9433594c0.6166992,0.4477539,1.4179688,0.5058594,2.0932617,0.1518555   l3.1123047-1.6430664l3.125,1.6430664c0.2929688,0.1538086,0.6103516,0.2299805,0.9262695,0.2299805   c0.4101563,0,0.8173828-0.128418,1.1655273-0.3813477c0.6166992-0.4477539,0.9194336-1.1923828,0.7910156-1.9433594   l-0.6005859-3.4677734l2.5273438-2.4638672C90.8608475,34.1694336,91.0537186,33.3891602,90.818367,32.6645508z    M86.3911209,35.7329102c-0.46875,0.4570313-0.6821289,1.1147461-0.5712891,1.7583008l0.6162109,3.4658203l-3.1259766-1.6435547   c-0.578125-0.3027344-1.269043-0.3032227-1.8481445,0.0004883l-3.1049805,1.6567383l0.5966797-3.4799805   c0.1098633-0.6445313-0.1035156-1.3012695-0.5717773-1.7578125l-2.5351563-2.4414063l3.4926758-0.5078125   c0.6464844-0.0932617,1.2060547-0.4990234,1.4970703-1.0869141l1.5361328-3.1699219l0.0019531,0.0039063l1.5625,3.1660156   c0.2895508,0.5869141,0.8491211,0.9936523,1.4956055,1.0869141l3.4863281,0.4853516L86.3911209,35.7329102z"></path><path d="M68.986824,74.1298218V40.4824219c0-2.4731445-2.0078125-4.4853516-4.4755859-4.4853516   c-1.4130898,0-2.6757851,0.6538086-3.5004921,1.6738281c-0.6342773-0.7767334-1.5292969-1.338562-2.5593872-1.5632935   l-0.2970581-1.7277222c-0.0839844-0.4790039,0.0732422-0.965332,0.4243164-1.3041992l6.3403358-6.1801758   c0.9570313-0.9316406,1.2944336-2.2998047,0.8803711-3.5708008c-0.4130859-1.2685547-1.4897461-2.1738281-2.8071327-2.3623047   l-8.7617188-1.2714844c-0.4799805-0.0708008-0.8955078-0.3759766-1.112793-0.8164063l-3.9277344-7.9443359   C48.5981483,9.7387695,47.4038124,9,46.0722694,9c-0.0024414,0-0.0048828,0-0.0078125,0   c-1.3295898,0.0029297-2.5195313,0.7436523-3.1035156,1.9316406l-3.9272461,7.9438477   c-0.2167969,0.4394531-0.6323242,0.7446289-1.109375,0.8149414l-8.7626934,1.2719727   c-1.3193359,0.1884766-2.3955078,1.0932617-2.8085938,2.3623047c-0.4140625,1.2709961-0.0766602,2.6396484,0.8798828,3.5708008   l6.3437481,6.1831055c0.3476563,0.3359375,0.5048828,0.8222656,0.4204102,1.3056641l-1.4931641,8.7290039   c-0.1229248,0.7371826-0.0115356,1.4644165,0.3035278,2.1061401c-0.1964722,0.5136108-0.2971802,1.0574341-0.2971802,1.6238403   v9.3251953c0,2.6669922,2.1650391,4.8364258,4.8261719,4.8364258h1.7446289v13.1259766   c-1.4943237,0.203125-2.6542969,1.4779663-2.6542969,3.0322266v10.7675781c0,0.8520508,0.3583984,1.6733398,0.9833984,2.2529297   C37.9765663,90.7089844,38.7241249,91,39.4868202,91c0.074707,0,0.1499023-0.0029297,0.2246094-0.0083008l29.0903358-2.0639648   c1.5981445-0.1181641,2.8496094-1.4624023,2.8496094-3.0605469v-8.7041016   C71.6513748,75.6053467,70.4860916,74.3284302,68.986824,74.1298218z M28.6284237,25.4624023   c-0.4130859-0.4018555-0.5527344-0.9697266-0.3740234-1.5185547c0.1782227-0.5463867,0.6230469-0.9208984,1.1923828-1.0019531   l8.7675762-1.2724609c1.1293945-0.1674805,2.1064453-0.8808594,2.612793-1.9082031l3.9277344-7.9448242   C45.0053749,11.3061523,45.4965858,11.0009766,46.0688515,11c0.0014648,0,0.0024414,0,0.003418,0   c0.5756836,0,1.0712891,0.3061523,1.3256836,0.8183594l3.9262695,7.9418945   c0.5068359,1.0283203,1.4838867,1.7416992,2.6162109,1.909668l8.7666016,1.2719727   c0.5673828,0.0810547,1.0126953,0.4560547,1.1904297,1.0024414c0.1787148,0.5488281,0.0390625,1.1162109-0.3740234,1.5180664   c0,0-0.0004883,0.0004883-0.0009766,0.0004883l-6.3369141,6.1772461c-0.8256836,0.7978516-1.2001953,1.9511719-1.0014648,3.0820313   l0.2426758,1.4116211c-0.0278931,0.007019-0.0531006,0.0200806-0.0808105,0.0276489   c-0.1786499,0.0488281-0.3522339,0.1085205-0.5213013,0.1780396c-0.0498047,0.0205078-0.0994873,0.0401001-0.1484375,0.0623169   c-0.1943359,0.0882568-0.3828735,0.1865234-0.5613403,0.300354c-0.020813,0.0133057-0.0396729,0.0290527-0.0603027,0.0427246   c-0.1587524,0.1050415-0.3088989,0.2209473-0.4527588,0.3446045c-0.0422974,0.036377-0.0838623,0.0727539-0.1248169,0.1105957   c-0.1554565,0.1439819-0.3045044,0.2947388-0.4384155,0.4591064c-0.7568359-0.9418945-1.8789063-1.5683594-3.1313477-1.6425781   c-0.1137695-0.0161133-0.2285156-0.0195313-0.3588867-0.0195313c-0.8085938,0-1.5839844,0.2226563-2.2553711,0.6191406v-3.5756836   c0-2.2016602-1.5668945-4.1015625-3.6943359-4.5117188c-0.28125-0.0634766-0.5791016-0.0942383-0.9116211-0.0942383   c-2.0683594,0-3.894043,1.3896484-4.4438477,3.3945313c-0.1088867,0.4228516-0.1621094,0.8188477-0.1621094,1.2114258v9.6396484   C38.5405312,42.4248047,37.951664,42.277832,37.338871,42.25c-0.0957031-0.0126953-0.1738281-0.0126953-0.2226563-0.0126953   c-0.2772217,0-0.548645,0.0321655-0.8161621,0.0800781c-0.0797729,0.0142822-0.1569214,0.034729-0.2355957,0.0531616   c-0.1938477,0.0454102-0.3830566,0.1027832-0.5686646,0.1727905c-0.0760498,0.0286865-0.1519775,0.0552368-0.2263794,0.0880127   c-0.2365723,0.1040039-0.4663696,0.2230835-0.6836548,0.3665771c-0.0093994,0.0062256-0.0197754,0.010376-0.0291748,0.0166626   c-0.0025024,0.0016479-0.005249,0.0028076-0.0077515,0.0044556l1.4189453-8.2939453   c0.1987305-1.1342773-0.1757813-2.2871094-0.9980469-3.0820313L28.6284237,25.4624023z M37.3364296,59.0048828   c-1.5585938,0-2.8261719-1.2724609-2.8261719-2.8364258v-9.3251953c0-0.4316406,0.1010742-0.8383789,0.3017578-1.2094727   c0.0473633-0.0888672,0.0942383-0.1713867,0.1625977-0.2666016c0.0825195-0.1196289,0.1733398-0.2231445,0.2709961-0.3286133   c0.0180664-0.0195313,0.0356445-0.0395508,0.0522461-0.0605469c0.484375-0.4707031,1.1162109-0.7324219,1.8007813-0.7407227   c0.0356445,0.0053711,0.0717773,0.0083008,0.1079102,0.0092773c0.7088013,0.020874,1.3662109,0.3287964,1.8532715,0.8647461   c0.0638428,0.0773315,0.1337891,0.1599731,0.189209,0.2431641c0.2446289,0.3666992,0.7021484,0.5317383,1.121582,0.4023438   c0.421875-0.1274414,0.7104492-0.5166016,0.7104492-0.9570313V44.309082V33.0405273   c0-0.2216797,0.0322266-0.4545898,0.0947266-0.6972656c0.3081055-1.1240234,1.3408203-1.9086914,2.5112305-1.9086914   c0.1821289,0,0.3359375,0.0146484,0.5014648,0.0517578c1.2192383,0.2353516,2.1044922,1.3095703,2.1044922,2.5541992v6.2402344   c0,0.484375,0.3476563,0.8994141,0.824707,0.984375c0.4750977,0.0864258,0.9467773-0.184082,1.1137695-0.6386719   c0.3642578-0.9897461,1.2739258-1.6293945,2.3168945-1.6293945l0.159668,0.0078125   c1.3046875,0.0791016,2.3261719,1.1674805,2.3261719,2.4775391c0,0.5522461,0.4477539,1,1,1s1-0.4477539,1-1   c0-0.1713257,0.0174561-0.338623,0.0509033-0.5003052c0.2333374-1.1289063,1.2437134-1.9802246,2.4962158-1.9841919   c1.3427734,0.0248413,2.4343262,1.1378174,2.4343262,2.4844971c0,0.5522461,0.4477539,1,1,1s1-0.4477539,1-1   c0-1.3706055,1.1196289-2.4853516,2.4956093-2.4853516c1.3652344,0,2.4755859,1.1147461,2.4755859,2.4853516v33.6069336h-2.2592773   v-12.237793c0-0.5522461-0.4477539-1-1.0000038-1c-0.5522461,0-1,0.4477539-1,1v12.237793H41.0810585V60.0048828   c0-0.5522461-0.4477539-1-1-1H37.3364296z M69.6513748,85.8671875c0,0.5566406-0.4379883,1.0249023-0.9941406,1.065918   l-29.0918007,2.0639648c-0.2919922,0.0229492-0.5761719-0.0776367-0.7954102-0.2802734   c-0.2211914-0.2050781-0.3432617-0.484375-0.3432617-0.7861328v-1.144165l7.7836914-0.5531006   c0.5507813-0.0390625,0.9658203-0.5175781,0.9267578-1.0683594s-0.5214844-0.9584961-1.0683594-0.9267578l-7.6420898,0.5430298   v-7.6182251c0-0.5922852,0.4770508-1.0737305,1.0634766-1.0737305h0.5400391   c0.0177612,0.0009155,0.0327759,0.0102539,0.0507813,0.0102539H67.986824c0.0180054,0,0.03302-0.0093384,0.0507813-0.0102539   h0.550293c0.5864258,0,1.0634766,0.4814453,1.0634766,1.0737305V85.8671875z"></path><path d="M51.3149452,83.8652344l-0.9243164,0.0654297c-0.5507813,0.0390625-0.9658203,0.5170898-0.9267578,1.0683594   c0.0371094,0.5268555,0.4765625,0.9291992,0.996582,0.9291992c0.0234375,0,0.0473633-0.0009766,0.0717773-0.0024414   l0.9243164-0.0654297c0.5507813-0.0390625,0.9658203-0.5170898,0.9267578-1.0683594   C52.3447304,84.2416992,51.8828163,83.8354492,51.3149452,83.8652344z"></path><path d="M62.4521523,77.4370117c-1.6855469,0-3.0566406,1.371582-3.0566406,3.0571289s1.3710938,3.0566406,3.0566406,3.0566406   c1.6855507,0,3.0571327-1.3710938,3.0571327-3.0566406S64.1377029,77.4370117,62.4521523,77.4370117z M62.4521523,81.5507813   c-0.5825195,0-1.0566406-0.4741211-1.0566406-1.0566406c0-0.5830078,0.4741211-1.0571289,1.0566406-1.0571289   c0.5830078,0,1.0571289,0.4741211,1.0571289,1.0571289C63.5092812,81.0766602,63.0351601,81.5507813,62.4521523,81.5507813z"></path><path d="M63.7275429,58.434082c0.5522499,0,1.0000038-0.4477539,1.0000038-1v-0.6625977c0-0.5522461-0.4477539-1-1.0000038-1   c-0.5522461,0-1,0.4477539-1,1v0.6625977C62.7275429,57.9863281,63.1752968,58.434082,63.7275429,58.434082z"></path></g></svg>