<svg xmlns:dc="http://purl.org/dc/elements/1.1/" xmlns:cc="http://creativecommons.org/ns#" xmlns:rdf="http://www.w3.org/1999/02/22-rdf-syntax-ns#" xmlns:svg="http://www.w3.org/2000/svg" xmlns="http://www.w3.org/2000/svg" xmlns:sodipodi="http://sodipodi.sourceforge.net/DTD/sodipodi-0.dtd" xmlns:inkscape="http://www.inkscape.org/namespaces/inkscape" viewBox="0 0 16.933333 16.933334" version="1.1" enable-background="new" x="0px" y="0px"><svg:g><svg:path style="color:#000000;font-style:normal;font-variant:normal;font-weight:normal;font-stretch:normal;font-size:medium;line-height:normal;font-family:sans-serif;font-variant-ligatures:normal;font-variant-position:normal;font-variant-caps:normal;font-variant-numeric:normal;font-variant-alternates:normal;font-feature-settings:normal;text-indent:0;text-align:start;text-decoration:none;text-decoration-line:none;text-decoration-style:solid;text-decoration-color:#000000;letter-spacing:normal;word-spacing:normal;text-transform:none;writing-mode:lr-tb;direction:ltr;text-orientation:mixed;dominant-baseline:auto;baseline-shift:baseline;text-anchor:start;white-space:normal;shape-padding:0;clip-rule:nonzero;display:inline;overflow:visible;visibility:visible;opacity:1;isolation:auto;mix-blend-mode:normal;color-interpolation:sRGB;color-interpolation-filters:linearRGB;solid-color:#000000;solid-opacity:1;vector-effect:none;fill:#000000;fill-opacity:1;fill-rule:nonzero;stroke:none;stroke-width:0.52916664;stroke-linecap:round;stroke-linejoin:round;stroke-miterlimit:4;stroke-dasharray:none;stroke-dashoffset:0;stroke-opacity:1;paint-order:normal;color-rendering:auto;image-rendering:auto;shape-rendering:auto;text-rendering:auto;enable-background:accumulate" d="m 2.9228204,1.7952727 c -1.0335815,0 -1.8732711,0.8396909 -1.8732711,1.8732706 v 6.7949337 c 0,1.03358 0.8396896,1.874821 1.8732711,1.874821 h 0.9275895 v 2.537313 a 0.26460979,0.26460979 0 0 0 0.4511357,0.185518 l 2.7248988,-2.722831 h 6.9840686 c 1.033581,0 1.873271,-0.841241 1.873271,-1.874821 V 3.6685433 c 0,-1.0335799 -0.83969,-1.8732706 -1.873271,-1.8732706 z m 0,0.5296834 H 14.010513 c 0.749575,0 1.344104,0.5940125 1.344104,1.3435872 v 6.7949337 c 0,0.749575 -0.594529,1.345654 -1.344104,1.345654 H 6.916891 a 0.26460979,0.26460979 0 0 0 -0.187587,0.07597 L 4.3795765,14.23689 V 12.072681 A 0.26460979,0.26460979 0 0 0 4.1160277,11.809131 H 2.9228204 c -0.7495778,0 -1.3435885,-0.596079 -1.3435885,-1.345654 V 3.6685433 c 0,-0.7495747 0.5940133,-1.3435872 1.3435885,-1.3435872 z m 5.5407454,1.859318 A 0.26460979,0.26460979 0 0 0 8.2217207,4.3501554 L 7.555611,6.0084521 5.7701895,6.1293749 A 0.26460979,0.26460979 0 0 0 5.6198109,6.5960131 L 6.991305,7.7427133 6.5556712,9.4769742 a 0.26460979,0.26460979 0 0 0 0.3963591,0.289388 L 8.4656321,8.8149991 9.981303,9.7663622 a 0.26460979,0.26460979 0 0 0 0.396359,-0.289388 L 9.9425442,7.7427133 11.313522,6.5960131 A 0.26460979,0.26460979 0 0 0 11.161075,6.1293749 L 9.3777223,6.0084521 8.7116126,4.3501554 A 0.26460979,0.26460979 0 0 0 8.4635658,4.1842741 Z m 0.00414,0.9725504 0.4826555,1.2030273 a 0.26460979,0.26460979 0 0 0 0.2263431,0.1658813 l 1.2908786,0.08785 -0.9921878,0.83044 a 0.26460979,0.26460979 0 0 0 -0.08785,0.267684 L 9.7038001,8.9653774 8.606192,8.278081 a 0.26460979,0.26460979 0 0 0 -0.2811197,0 L 7.2295332,8.9653774 7.5457923,7.7117073 a 0.26460979,0.26460979 0 0 0 -0.08785,-0.267684 l -0.9921875,-0.83044 1.2908783,-0.08785 A 0.26460979,0.26460979 0 0 0 7.9834921,6.359852 Z"></svg:path></svg:g></svg>