<svg xmlns:dc="http://purl.org/dc/elements/1.1/" xmlns:cc="http://creativecommons.org/ns#" xmlns:rdf="http://www.w3.org/1999/02/22-rdf-syntax-ns#" xmlns:svg="http://www.w3.org/2000/svg" xmlns="http://www.w3.org/2000/svg" xmlns:sodipodi="http://sodipodi.sourceforge.net/DTD/sodipodi-0.dtd" xmlns:inkscape="http://www.inkscape.org/namespaces/inkscape" version="1.1" x="0px" y="0px" viewBox="0 0 100 100"><g transform="translate(0,-952.36218)"><path style="font-size:medium;font-style:normal;font-variant:normal;font-weight:normal;font-stretch:normal;text-indent:0;text-align:start;text-decoration:none;line-height:normal;letter-spacing:normal;word-spacing:normal;text-transform:none;direction:ltr;block-progression:tb;writing-mode:lr-tb;text-anchor:start;baseline-shift:baseline;opacity:1;color:#000000;fill:#000000;fill-opacity:1;stroke:none;stroke-width:3.99999976000000010;marker:none;visibility:visible;display:inline;overflow:visible;enable-background:accumulate;font-family:Sans;-inkscape-font-specification:Sans" d="M 18.59375 15 C 9.9784794 15 3 22.03482 3 30.6875 L 3 46 A 2.0001999 2.0001999 0 0 0 5 48 L 21 48 A 2.0001999 2.0001999 0 0 0 23 46 L 23 30 A 2.0001999 2.0001999 0 0 0 21 28 L 14.34375 28 C 14.483692 27.70273 14.533285 27.47534 14.96875 27.0625 C 15.648762 26.41782 16.541921 26 17.25 26 L 21 26 A 2.0001999 2.0001999 0 0 0 23 24 L 23 17 A 2.0001999 2.0001999 0 0 0 21 15 L 18.59375 15 z M 42.59375 15 C 33.978479 15 27 22.03482 27 30.6875 L 27 46 A 2.0001999 2.0001999 0 0 0 29 48 L 45 48 A 2.0001999 2.0001999 0 0 0 47 46 L 47 30 A 2.0001999 2.0001999 0 0 0 45 28 L 38.34375 28 C 38.483692 27.70273 38.533285 27.47534 38.96875 27.0625 C 39.648762 26.41782 40.541921 26 41.25 26 L 45 26 A 2.0001999 2.0001999 0 0 0 47 24 L 47 17 A 2.0001999 2.0001999 0 0 0 45 15 L 42.59375 15 z M 18.59375 19 L 19 19 L 19 22 L 17.25 22 C 15.191495 22 13.472093 22.96804 12.21875 24.15625 C 10.965407 25.34446 10 26.70911 10 28.53125 L 10 30 A 2.0001999 2.0001999 0 0 0 12 32 L 19 32 L 19 44 L 7 44 L 7 30.6875 C 7 24.16684 12.140211 19 18.59375 19 z M 42.59375 19 L 43 19 L 43 22 L 41.25 22 C 39.191495 22 37.472093 22.96804 36.21875 24.15625 C 34.965407 25.34446 34 26.70911 34 28.53125 L 34 30 A 2.0001999 2.0001999 0 0 0 36 32 L 43 32 L 43 44 L 31 44 L 31 30.6875 C 31 24.16684 36.140211 19 42.59375 19 z M 54.8125 52 A 2.0001999 2.0001999 0 0 0 53 54 L 53 70 A 2.0001999 2.0001999 0 0 0 55 72 L 61.65625 72 C 61.515274 72.2985 61.463084 72.49695 61.03125 72.90625 C 60.351233 73.55095 59.458067 74 58.75 74 L 55 74 A 2.0001999 2.0001999 0 0 0 53 76 L 53 83 A 2.0001999 2.0001999 0 0 0 55 85 L 57.40625 85 C 66.021528 85 73 77.93395 73 69.28125 L 73 54 A 2.0001999 2.0001999 0 0 0 71 52 L 55 52 A 2.0001999 2.0001999 0 0 0 54.8125 52 z M 78.8125 52 A 2.0001999 2.0001999 0 0 0 77 54 L 77 70 A 2.0001999 2.0001999 0 0 0 79 72 L 85.65625 72 C 85.515274 72.2985 85.463084 72.49695 85.03125 72.90625 C 84.351233 73.55095 83.458067 74 82.75 74 L 79 74 A 2.0001999 2.0001999 0 0 0 77 76 L 77 83 A 2.0001999 2.0001999 0 0 0 79 85 L 81.40625 85 C 90.021528 85 97 77.93395 97 69.28125 L 97 54 A 2.0001999 2.0001999 0 0 0 95 52 L 79 52 A 2.0001999 2.0001999 0 0 0 78.8125 52 z M 57 56 L 69 56 L 69 69.28125 C 69 75.80185 63.859782 81 57.40625 81 L 57 81 L 57 78 L 58.75 78 C 60.808517 78 62.527913 77.0007 63.78125 75.8125 C 65.034587 74.6243 66 73.29085 66 71.46875 L 66 70 A 2.0001999 2.0001999 0 0 0 64 68 L 57 68 L 57 56 z M 81 56 L 93 56 L 93 69.28125 C 93 75.80185 87.859782 81 81.40625 81 L 81 81 L 81 78 L 82.75 78 C 84.808517 78 86.527913 77.0007 87.78125 75.8125 C 89.034587 74.6243 90 73.29085 90 71.46875 L 90 70 A 2.0001999 2.0001999 0 0 0 88 68 L 81 68 L 81 56 z " transform="translate(0,952.36218)"></path></g></svg>