<?xml version="1.0" encoding="UTF-8"?>
<svg width="1200pt" height="1200pt" version="1.1" viewBox="0 0 1200 1200" xmlns="http://www.w3.org/2000/svg">
 <path d="m331.06 989.05c-21.105 26.582-48.711 47.262-80.148 60.039-34.707-13.477-64.805-36.656-86.703-66.77-18.949-29.52-22.508-59.367-9.7891-81.98 3.543-6.918 8.8555-12.77 15.402-16.961 6.543-4.1914 14.082-6.5742 21.848-6.8984h0.92188c16.332 0.44141 31.012 12.113 41.344 32.844v-0.003907c1.5039 3.0898 3.8594 5.6875 6.7812 7.4883 2.9258 1.8047 6.3047 2.7383 9.7383 2.6953 3.4297-0.011718 6.7852-0.98438 9.6875-2.8047 2.9023-1.8242 5.2344-4.4219 6.7344-7.5039 11.293-23.254 26.641-36.152 43.227-36.316h0.30469c7.8398 0.49609 15.391 3.1406 21.824 7.6484 6.4375 4.5039 11.508 10.695 14.652 17.895 13.098 25.656 7.1758 59.496-15.777 90.594zm-21.363-152.84c-23.664 0.90625-45.645 12.477-59.797 31.465-14.031-16.84-34.523-26.973-56.426-27.891-14.602-0.058594-28.941 3.875-41.473 11.371-12.531 7.5-22.777 18.277-29.629 31.172-19.617 34.812-15.652 78.504 10.914 119.82 27.945 39.418 67.789 68.852 113.68 83.973 0.98828 0.16406 1.9922 0.23828 2.9922 0.23047 16.785-2.9531 32.73-9.5078 46.738-19.215 24.723-14.492 46.434-33.598 63.941-56.285 31.453-42.504 38.539-90.758 18.949-129.09h-0.003906c-6.2344-13.352-16.082-24.695-28.426-32.742-12.344-8.0508-26.691-12.484-41.426-12.809zm705.6 124.16-118.8 68.562c-3.8125 2.2031-8.5117 2.207-12.324 0.003906s-6.1602-6.2734-6.1562-10.676v-137.17c-0.16016-4.4531 2.2461-8.6094 6.1914-10.688 3.7695-2.3555 8.5547-2.3555 12.328 0l118.8 68.578c3.8164 2.207 6.1641 6.2852 6.1641 10.691 0 4.4102-2.3477 8.4844-6.1641 10.695zm18.34-53.168-118.74-68.578 0.003906 0.003906c-9.9883-5.7969-21.699-7.8789-33.074-5.8867-11.371 1.9922-21.676 7.9375-29.098 16.781s-11.484 20.023-11.473 31.57v137.17c-0.046875 11.547 3.9922 22.742 11.402 31.602 7.4141 8.8555 17.719 14.805 29.098 16.797 11.375 1.9883 23.09-0.11328 33.066-5.9336l118.74-68.578v0.003907c9.9961-5.7578 17.645-14.855 21.594-25.695 3.9492-10.836 3.9492-22.723 0-33.559-3.9492-10.84-11.598-19.938-21.594-25.695zm-450-103.83-61.211-106.02 8.0703-4.6719 61.227 106.03-8.0859 4.6602zm-108.4-123.46c-1.7383-0.43359-3.2227-1.5625-4.1055-3.1172l-32.086-55.578v-0.003907c-1.7969-3.2461-0.67578-7.332 2.5273-9.207l61.352-35.496 38.828 67.301-61.391 35.445h0.003907c-1.5352 0.87109-3.3516 1.1055-5.0547 0.64453zm215.51-73.426-81.031-140.38-77.609 87.586 43.996 76.168 114.64-23.406zm-72.457-215.56c1.2422-0.73047 2.6562-1.1133 4.0938-1.1133 0.74609 0.011718 1.4883 0.11328 2.2109 0.30469 2.1172 0.55078 3.9297 1.9102 5.0508 3.7891l131.13 227.17c1.082 1.918 1.3711 4.1836 0.80859 6.3164-0.86719 3.2539-3.6172 5.6641-6.957 6.0977-3.3438 0.43359-6.6172-1.1914-8.2891-4.1172l-131.09-227.08c-2.2539-3.9844-0.89844-9.0391 3.043-11.367zm-55.98 283.43 70.395 121.89v0.003906c2.4062 4.2109 3.0586 9.2031 1.8047 13.895-1.2422 4.6992-4.3125 8.7031-8.5234 11.125l-39.879 23.066c-4.2148 2.4453-9.2305 3.1133-13.938 1.8516-4.707-1.2617-8.7188-4.3477-11.148-8.5703l-70.914-122.79c-4.2227 1.3633-8.625 2.0586-13.062 2.0742-3.8398-0.011719-7.6602-0.51953-11.367-1.5195-11.145-2.9414-20.648-10.219-26.398-20.207l-32.086-55.578v-0.003906c-5.7422-9.9844-7.2969-21.836-4.3164-32.965 2.9766-11.129 10.242-20.621 20.207-26.402l74.703-43.199 92.516-104.41-6.9219-11.977-0.003906 0.003906c-5.9844-10.34-7.6133-22.637-4.5234-34.18 3.0859-11.543 10.641-21.379 20.992-27.348s22.648-7.5703 34.188-4.4609c11.555 3.0391 21.406 10.582 27.359 20.941l131.12 227.1-0.003906 0.003906c6.1016 10.348 7.8125 22.707 4.7539 34.324-3.0586 11.621-10.633 21.535-21.039 27.539-10.402 6.0078-22.777 7.6055-34.367 4.4414-11.59-3.1641-21.434-10.828-27.348-21.285l-4.4844-7.707-136.55 27.918-11.102 6.4297zm545.68 399.34c28.121-35.785 43.281-80.047 43.004-125.55-0.27734-45.512-15.973-89.586-44.531-125.03-28.555-35.438-68.281-60.152-112.69-70.102-44.41-9.9531-90.883-4.5547-131.83 15.312-40.949 19.867-73.953 53.027-93.621 94.07-19.672 41.043-24.848 87.539-14.684 131.9 10.16 44.363 35.062 83.973 70.641 112.36 35.574 28.387 79.723 43.871 125.23 43.934 30.516 0.035156 60.641-6.8672 88.098-20.188 27.453-13.32 51.52-32.711 70.379-56.703zm-622.74-87.156h229.89c-7.7969-49.48 0.25-100.16 22.988-144.79 22.738-44.629 59.008-80.926 103.62-103.7 44.613-22.773 95.285-30.859 144.77-23.094v-233.52c-48.863 7.8125-98.941-0.070312-143.04-22.516-44.102-22.445-79.945-58.293-102.39-102.39-22.441-44.102-30.32-94.18-22.504-143.04h-233.68c3.3555 21.648 3.7148 43.652 1.0625 65.395-6.9727 57.539-34.766 110.54-78.137 148.99-43.371 38.453-99.32 59.695-157.28 59.723-12.402-0.007813-24.789-0.97656-37.047-2.8906v230.26c42.129-6.6523 85.273-1.832 124.89 13.957s74.258 41.957 100.27 75.758c26.012 33.801 42.438 73.984 47.551 116.33 2.6484 21.754 2.3008 43.766-1.0352 65.422zm-76.734 87.156c28.113-35.781 43.266-80.035 42.984-125.54-0.28125-45.504-15.984-89.57-44.539-125-28.555-35.43-68.277-60.133-112.68-70.078-44.406-9.9414-90.871-4.5352-131.81 15.332-40.938 19.871-73.93 53.031-93.59 94.07-19.66 41.039-24.828 87.531-14.656 131.88 10.168 44.355 35.074 83.949 70.648 112.32 35.578 28.371 79.723 43.848 125.23 43.898 30.523 0.14453 60.676-6.7109 88.141-20.043 27.461-13.328 51.5-32.773 70.273-56.848zm-316.25-699.64c27.254 34.789 65.227 59.617 108.03 70.625s88.039 7.5898 128.7-9.7344c40.66-17.32 74.465-47.574 96.176-86.07 21.711-38.492 30.109-83.074 23.902-126.83-6.2109-43.754-26.688-84.238-58.25-115.17-31.566-30.93-72.457-50.582-116.33-55.906-8.1602-0.98438-16.371-1.4844-24.594-1.4922-50.398 0.13281-98.902 19.207-135.89 53.438-36.988 34.234-59.754 81.121-63.781 131.36-4.0273 50.238 10.98 100.15 42.043 139.84zm735.68-279.16v-0.003906c-41.211 32.312-67.902 79.672-74.199 131.66s8.3203 104.35 40.629 145.56c32.309 41.211 79.668 67.902 131.66 74.199 51.988 6.2969 104.35-8.3164 145.56-40.629 41.215-32.309 67.906-79.664 74.203-131.65 6.2969-51.988-8.3164-104.35-40.625-145.56-32.336-41.176-79.688-67.84-131.66-74.145-51.973-6.3086-104.32 8.2578-145.57 40.504zm268.34 667.68c-21.871-17.184-46.605-30.375-73.059-38.969v-251.04c50.828-16.773 94.379-50.453 123.39-95.434s41.746-98.543 36.074-151.77c-5.6719-53.227-29.41-102.9-67.254-140.75-37.848-37.852-87.52-61.598-140.74-67.277-53.223-5.6836-106.79 7.0391-151.77 36.047s-78.672 72.551-95.457 123.38h-251.27c-16.789-51.781-50.852-96.223-96.488-125.89-45.637-29.668-100.08-42.766-154.21-37.098-54.137 5.668-104.69 29.758-143.19 68.234-38.504 38.48-62.621 89.016-68.32 143.15-5.7031 54.137 7.3633 108.59 37.008 154.24 29.641 45.656 74.062 79.742 125.84 96.562v247.77c-51.695 16.891-96.027 51.008-125.59 96.656-29.562 45.645-42.57 100.05-36.844 154.13 5.7227 54.082 29.832 104.56 68.297 143.01 38.465 38.445 88.961 62.527 143.04 68.223 54.086 5.6914 108.49-7.3438 154.12-36.934 45.629-29.59 79.723-73.941 96.586-125.64h247.34c15.363 47.27 45.156 88.527 85.191 117.98 40.039 29.449 88.297 45.609 138 46.199 49.695 0.58984 98.328-14.414 139.05-42.902 40.723-28.488 71.492-69.031 87.977-115.92 16.48-46.887 17.848-97.762 3.9102-145.47-13.941-47.703-42.484-89.84-81.621-120.47zm-250.22-565.52c0.011719-4.5273 1.8164-8.8672 5.0234-12.066 3.207-3.1992 7.5508-4.9961 12.082-4.9961h173.15c4.5352-0.007812 8.8867 1.7852 12.102 4.9844 3.2148 3.1992 5.0273 7.5469 5.0391 12.078v98.668c-0.007812 4.5312-1.8164 8.875-5.0195 12.078-3.207 3.2031-7.5508 5.0039-12.082 5.0117h-27.59c-3.4961-0.003906-6.9219 0.99219-9.8711 2.8711-2.9531 1.8789-5.3086 4.5586-6.7891 7.7266-3.0625 7.082-8.4375 12.914-15.246 16.547 0.46875-1.793 0.88281-3.5742 1.2617-5.3672h0.003906c1.0117-5.3711-0.41797-10.918-3.9023-15.129-3.4883-4.207-8.6719-6.6445-14.137-6.6484h-96.883c-4.5352-0.003906-8.8828-1.8047-12.086-5.0078-3.207-3.2031-5.0117-7.5508-5.0195-12.082v-98.668zm17.102 152.48h0.003907c-14.266-0.015625-27.945-5.6914-38.031-15.777-10.09-10.09-15.762-23.766-15.781-38.031v-98.668c0.019531-14.262 5.6992-27.93 15.785-38.012 10.09-10.082 23.766-15.75 38.027-15.758h173.15c14.254 0.019531 27.922 5.6914 38 15.77 10.082 10.082 15.754 23.746 15.773 38v98.668c-0.015625 14.262-5.6914 27.938-15.773 38.027-10.086 10.086-23.762 15.762-38.023 15.781h-16.941c-12.012 17.582-34.926 34.66-78.734 34.863h-0.089843 0.003906c-4.8125 0-9.4297-1.8906-12.863-5.2617-3.4297-3.375-5.3984-7.9648-5.4766-12.773-0.082031-4.8125 1.7344-9.4648 5.0508-12.949 1.2617-1.2617 2.3867-2.6016 3.4727-3.8789zm-686.04-12.633-6.6133-41.594 20.629-14.793h-0.003906c5.3281-3.8242 8.2109-10.199 7.5625-16.727-0.64844-6.5234-4.7305-12.207-10.707-14.91-5.9727-2.7031-12.938-2.0078-18.266 1.8164l-5.6445 4.0312-2.3359-14.793h175.2l-3.1562 12.898-2.9688-2.1328-0.003907-0.003906c-3.9414-3.0469-8.9531-4.3594-13.883-3.6367-4.9297 0.72656-9.3555 3.4219-12.258 7.4727-2.8984 4.0508-4.0312 9.1094-3.1289 14.008 0.90234 4.9023 3.7578 9.2266 7.9102 11.977l14.98 10.762-11.191 45.641zm9.5-173.32h19.453v39.625h-19.453l0.003906-39.613zm109.74 10.926 17.824 7.793-9.1562 20.906h-21.207l12.543-28.699zm49.16 185.08 11.039-45.234 25.125 18.023 0.007813 0.003906c3.9492 2.8984 8.8984 4.0938 13.738 3.3242 4.8359-0.77344 9.168-3.4453 12.023-7.4258 2.8555-3.9844 4.0039-8.9414 3.1836-13.773-0.82031-4.8281-3.5391-9.1328-7.5469-11.949l-37.16-26.664 12.176-49.996h-0.003906c1.3594-5.4766 0.11719-11.273-3.3633-15.715-3.4805-4.4414-8.8164-7.0312-14.457-7.0234h-15.156l10.105-23.004-0.003906 0.003906c1.9414-4.4609 2.0391-9.5117 0.26562-14.043s-5.2734-8.1758-9.7266-10.133l-51.473-22.449c-4.4609-1.9453-9.5117-2.043-14.043-0.27344-4.5312 1.7734-8.1758 5.2695-10.133 9.7227l-26.352 60.242h-0.92187v-57.957c-0.003907-4.8672-1.9375-9.5391-5.3828-12.98-3.4453-3.4453-8.1133-5.3828-12.984-5.3828h-56.211c-4.8711 0-9.543 1.9336-12.984 5.3789-3.4453 3.4414-5.3789 8.1133-5.3789 12.984v57.98h-9.625c-5.3711-0.007813-10.477 2.3398-13.965 6.4258-3.4883 4.082-5.0117 9.4922-4.1641 14.797l8.5781 54.238-33.273 23.859c-5.3242 3.8359-8.2031 10.223-7.543 16.758 0.65625 6.5312 4.75 12.215 10.734 14.91 5.9883 2.6953 12.957 1.9922 18.285-1.8438l18.277-13.125 6.1523 38.867c0.67969 4.3164 2.8789 8.2461 6.1992 11.086 3.3203 2.8359 7.543 4.3984 11.914 4.4023h166.24c4.1133 0.003906 8.1055-1.3789 11.336-3.9219 3.2344-2.543 5.5117-6.1016 6.4766-10.098z" fill="#fff" fill-rule="evenodd"/>
</svg>
