<?xml version="1.0" encoding="UTF-8"?>
<svg width="1200pt" height="1200pt" version="1.1" viewBox="0 0 1200 1200" xmlns="http://www.w3.org/2000/svg">
 <g fill="#fff">
  <path d="m887.09 560.3c-33.672-14.566-79.457-11.051-111.98 26.473-32.508-37.488-78.289-41.039-111.98-26.473-38.66 16.711-71.215 60.094-56.801 119.32 24.504 100.66 157.45 173.2 163.09 176.25 1.7734 0.94922 3.7344 1.4297 5.6914 1.4297s3.9141-0.48047 5.6836-1.4297c5.6484-3.0469 138.61-75.586 163.1-176.25 14.414-59.227-18.133-102.61-56.797-119.32zm33.477 113.65c-19.277 79.242-120.27 142.77-145.46 157.54-25.191-14.766-126.17-78.305-145.46-157.54-11.109-45.645 13.594-78.902 43.008-91.617 8.582-3.7148 18.668-6.0469 29.293-6.0469 21.551 0 45.293 9.6328 63.105 36.973 2.2148 3.3984 5.9922 5.4492 10.055 5.4492 4.0547 0 7.8398-2.0508 10.055-5.4492 26.598-40.816 66.391-42.176 92.402-30.926 29.402 12.715 54.105 45.973 42.996 91.617z"/>
  <path d="m981.86 452.1h-252.08v-233.95c0-54.117-44.023-98.145-98.141-98.145h-413.5c-54.117 0-98.145 44.027-98.145 98.145v298.21c0 54.117 44.027 98.145 98.148 98.145l29.797-0.011719 0.31641 121.45c0.011719 4.6172 2.6719 8.8125 6.8359 10.793 1.6445 0.78516 3.4023 1.1719 5.1641 1.1719 2.6914 0 5.3594-0.90234 7.5352-2.6602l162.08-130.75h40.348v233.96c0 54.117 44.027 98.145 98.145 98.145h201.77l162.08 130.73c2.1758 1.7578 4.8398 2.6602 7.5312 2.6602 1.7578 0 3.5195-0.38672 5.1641-1.1719 4.168-1.9805 6.8281-6.1758 6.8359-10.793l0.31641-121.44 29.801 0.011719c54.117 0 98.145-44.027 98.145-98.145v-298.22c0-54.117-44.027-98.145-98.145-98.145zm-556.22 138.4c-2.7422 0-5.4023 0.9375-7.5352 2.6602l-145.9 117.7-0.28125-108.41c-0.015624-6.6094-5.3867-11.965-12.008-11.965l-41.766 0.011719c-40.883 0-74.145-33.258-74.145-74.145l-0.003906-298.21c0-40.887 33.266-74.145 74.148-74.145h413.5c40.883 0 74.145 33.258 74.145 74.145v233.95h-137.42c-54.117 0-98.145 44.027-98.145 98.145v40.254zm630.37 257.96c0 40.887-33.266 74.145-74.141 74.145l-41.77-0.011719h-0.007813c-6.6133 0-11.984 5.3555-12 11.965l-0.28125 108.4-145.9-117.69c-2.1328-1.7227-4.793-2.6602-7.5352-2.6602h-206c-40.883 0-74.145-33.258-74.145-74.145v-298.22c0-40.887 33.266-74.145 74.145-74.145h413.5c40.879 0 74.145 33.258 74.145 74.145z"/>
 </g>
</svg>
